<?xml version="1.0" encoding="UTF-8"?>
<svg xmlns="http://www.w3.org/2000/svg" xmlns:xlink="http://www.w3.org/1999/xlink" version="1.1" viewBox="0 0 595.3 272.2">
  <defs>
    <style>
      .cls-1 {
        fill: #12100d;
      }

      .cls-1, .cls-2, .cls-3, .cls-4, .cls-5, .cls-6, .cls-7, .cls-8, .cls-9, .cls-10 {
        fill-rule: evenodd;
      }

      .cls-2, .cls-11 {
        fill: #fff;
      }

      .cls-3 {
        fill: url(#radial-gradient);
      }

      .cls-4 {
        fill: #fbe800;
      }

      .cls-5 {
        stroke-width: 4.5px;
      }

      .cls-5, .cls-7, .cls-10 {
        stroke: #fff;
        stroke-miterlimit: 8.9;
      }

      .cls-7, .cls-10 {
        stroke-width: .9px;
      }

      .cls-8 {
        fill: #9f9c9b;
      }

      .cls-9 {
        stroke: #000;
        stroke-miterlimit: 2.3;
        stroke-width: .2px;
      }

      .cls-10 {
        fill: #010202;
      }
    </style>
    <radialGradient id="radial-gradient" cx="346.8" cy="387.7" fx="346.8" fy="387.7" r="84.1" gradientTransform="translate(0 486.7) scale(.9 -.9)" gradientUnits="userSpaceOnUse">
      <stop offset="0" stop-color="#fff"/>
      <stop offset="1" stop-color="#ca5c16"/>
    </radialGradient>
  </defs>
  <!-- Generator: Adobe Illustrator 28.6.0, SVG Export Plug-In . SVG Version: 1.2.0 Build 709)  -->
  <g>
    <g id="Layer_1">
      <g id="Layer_1-2" data-name="Layer_1">
        <g>
          <polyline class="cls-2" points="376.2 14.1 374.6 13.6 373.1 13.2 371.5 12.8 369.9 12.5 368.2 12.2 366.6 11.8 364.9 11.5 363.2 11.4 361.4 11.1 359.7 10.9 357.9 10.8 356.1 10.6 354.2 10.5 352.4 10.5 350.6 10.5 348.7 10.5 346.7 10.5 344.7 10.5 342.8 10.6 340.8 10.7 338.8 10.9 336.8 11.1 334.7 11.3 332.6 11.4 330.5 11.7 328.4 12.1 326.2 12.3 324.1 12.7 321.9 13 319.6 13.5 317.4 13.9 315.2 14.4 311.5 15.2 307.9 16.2 304.3 17.3 300.9 18.3 299.1 18.9 297.3 19.6 293.8 20.9 290.4 22.3 288.6 23.1 286.9 23.9 283.5 25.5 281.7 26.4 280 27.2 278.3 28.1 276.7 29 273.3 30.9 270 32.9 266.7 35 265 36.1 263.4 37.2 260.2 39.5 261.5 41.1 262.2 41.9 262.8 42.8 263.4 43.6 263.5 43.7 263.6 43.8 263.8 44 264 44.4 265.2 46 265.8 46.9 261.8 50.8 262.9 52.4 263.4 53.2 263.9 54 264.7 55.7 271.4 51.2 273.5 49.8 275.6 48.4 277.7 47.2 279.8 45.9 281.9 44.7 284 43.5 286.1 42.4 288.2 41.3 290.3 40.2 292.4 39.1 293.4 38.6 294.5 38.2 296.6 37.2 298.6 36.3 300.8 35.4 302.8 34.6 304.9 33.8 307 33 309.1 32.3 311.1 31.6 313.2 30.9 315.3 30.3 317.4 29.7 319.4 29.1 321.6 28.7 323.6 28.2 325.7 27.8 327.8 27.4 329.8 27.1 331.9 26.7 333.9 26.5 336.1 26.3 337.3 26.3 338.7 26.3 339.9 26.3 341.2 26.4 342.3 26.4 343.6 26.5 344.7 26.5 345.9 26.6 347 26.7 348.1 26.9 349.2 27 350.3 27.2 351.3 27.4 352.3 27.5 353.3 27.7 354.2 28 355.2 28.2 356.1 28.4 357 28.7 357.9 29 358.7 29.2 359.5 29.5 360.3 29.8 361.1 30.1 361.8 30.5 362.5 30.8 363.2 31.2 364 31.6 364.6 31.9 365.2 32.4 365.8 32.8 366.5 33.2 367 33.7 367.5 34.1 368 34.6 368.5 35.1 369 35.6 369.4 36.1 369.9 36.6 370.2 37.2 370.6 37.7 370.9 38.3 371.3 38.9 371.6 39.5 371.8 40.1 372.1 40.8 372.3 41.4 372.5 42.1 372.7 42.7 372.8 43.4 373 44.2 373.1 44.9 373.2 45.6 373.3 46.3 373.3 47.1 373.3 47.8 373.3 48.6 373.3 49.4 373.2 50.2 373.1 51 373 51.9 372.9 52.7 372.7 53.6 372.5 54.5 372.4 55.4 372.1 56.3 371.8 57.1 371.6 57.9 371.2 58.7 370.8 59.6 370.5 60.4 370.3 60.8 370.1 61.2 369.7 61.9 369.4 62.3 369.2 62.7 369 63.1 368.7 63.5 368.4 63.8 368.2 64.2 367.9 64.5 367.6 64.9 367.1 65.6 366.5 66.3 365.8 67 365.5 67.3 365.1 67.7 364.4 68.3 363.7 68.9 363 69.5 362.2 70.2 361.4 70.8 360.9 71.1 360.5 71.3 360 71.7 359.7 72 358.8 72.5 358.2 72.8 357.8 73 357.3 73.3 356.8 73.6 355.8 74.1 355.3 74.4 354.8 74.5 353.8 75.1 352.7 75.5 351.6 76.1 351 76.2 350.5 76.5 349.8 76.7 349.3 77 348 77.3 346.9 77.8 345.6 78.1 344.3 78.6 343 78.9 341.7 79.3 340.3 79.6 338.9 79.9 337.4 80.3 336.7 80.4 336 80.5 335.3 80.7 334.6 80.8 333.7 81 333 81.2 331.4 81.3 329.9 81.6 328.3 81.9 327.4 82 326.6 82.1 325.8 82.2 325 82.3 323.3 82.5 321.6 82.7 319.8 82.9 318 83 316.2 83.1 314.4 83.3 312.5 83.4 310.6 83.5 309.6 83.6 308.7 83.6 306.8 83.7 305.7 83.7 304.7 83.7 303.7 83.7 302.7 83.8 294.2 83.7 295.7 84.3 297.2 84.9 297.9 85.4 298.7 85.7 300.2 86.6 301 87.1 301.8 87.5 309.9 88.8 311.6 89.8 313.3 91 315.3 90.6 317.4 90.5 319.4 90.3 321.6 90.2 321.8 90.2 322 90.2 323.2 90.2 324.4 90.1 325.5 90.1 326.6 90.2 327.8 90.2 328.8 90.3 329.9 90.3 331 90.4 332 90.5 333.1 90.6 334.1 90.7 335.1 90.8 336.1 91 337.1 91.2 337.9 91.3 338.9 91.5 339.8 91.8 340.7 92 340.9 92 341.2 91.9 341.4 91.8 341.7 91.7 342 91.5 342.3 91.4 342.6 91.2 343 91 343.3 90.7 343.7 90.5 344.1 90.2 344.5 89.8 344.9 89.5 345.4 89.1 345.8 88.7 346.4 88.3 346.7 88 347.1 87.7 347.4 87.4 347.9 87.1 348.3 86.9 348.8 86.8 349.1 86.6 349.7 86.5 350.1 86.4 350.6 86.3 351.1 86.3 351.6 86.3 352.1 86.4 352.6 86.4 353.2 86.6 353.8 86.7 355.5 85.6 355.6 85.7 356.7 85 357.3 84.6 357.9 84.2 358.4 83.7 359 83.4 359.6 82.9 360.1 82.5 361.2 81.6 362.3 80.7 363.3 79.7 363.8 79.2 364 78.9 364.3 78.7 364.9 78.1 365.3 77.6 366.3 76.5 367.3 75.3 367.5 75.1 367.7 74.8 368.2 74.2 368.6 73.6 369.1 73 370 71.8 370.2 71.4 370.4 71.1 370.8 70.4 371.7 69.2 372.1 68.5 372.5 67.8 373.3 66.4 373.7 65.6 374.1 64.9 374.9 63.5 375.6 61.9 375.9 61.1 376.3 60.3 376.7 59.5 377 58.7 377.6 57.1 378.3 55.4 378.4 55 378.6 54.6 378.9 53.7 379.2 52.8 379.5 51.9 379.8 51 380 50.6 380 50.1"/>
          <g>
            <path class="cls-2" d="M218.2,262.1l-1-.4-1-.4-.9-.4-.9-.4-.9-.5-.9-.5-.8-.5v.4c0,0,.3.4.3.4l.2.4.3.4.3.3.3.3.3.3.4.2h-1.1c0,0-1.1-.2-1.1-.2l-1.1-.2-1-.2-1.1-.3-1-.3-1-.3-1-.3-1-.4-1-.4-1-.4-.9-.4-1-.4-.9-.4-1.8-1-.9-.5-.9-.5-.9-.5-.8-.6-1.3-1-.6-.5-.5-.4-.5-.5-.5-.5-.5-.5-.4-.5-.4-.5-.4-.5-.4-.5-.4-.5-.4-.5-.3-.5-.5-1.1-.4.7-.4.6-.4.6-.4.5-.4.5-.4.5-.2.3-.2.3-.4.4-.4-.6-.4-.6-.6-1.3-.5-1.3-.4-1.3-.2-.7-.2-.7-.3-1.4v-.7c0,0-.2-.7-.2-.7v-1.4c0,0-.2-1.3-.2-1.3v-1.3c0,0-.2-1.3-.2-1.3v-5.5l-.6.4-.4.2-.4.2h-.4c0,0-.4.2-.4.2l-.6.2h-1.8c0,0-.4-.2-.4-.2h-.7c0,0,1-2.3,1-2.3l.5-1.2.5-1.1.9-1.7.5-1.1.5-1.1.4-1.1.5-1.1.4-1.2.4-1.2.4-1.2.2-.5.3-.5.2-.6.2-.5.2-.6.2-.5.3-1.2.3-1.2.3-1.3.2-1.3v-.6c0,0,.2-.6.2-.6l.2-1.3v-1.3c0,0,.2-1.3.2-1.3v-1.3c0,0,.2-1.3.2-1.3v-5.2c0,0-.2-2.6-.2-2.6l-.2-2.5v-1.3c0,0-.2-1.3-.2-1.3l-.2-1.3-.2-1.2-.2-1.3v-1.3c0,0-.2-1.3-.2-1.3v-2.4c0,0,.3-1.3.3-1.3l.2-1.2.3-1.2.4.3.4.3.7.6.7.7.7.9.4-.6.4-.5.4-.5.4-.5.4-.5.4-.4.4-.4.5-.4.4,1.5.4,1.5.3,1.5.3,1.6v1.3c0,0,.2,1.3.2,1.3v2.7h.4c0,0,.4-.2.4-.2h.4c0,0,.4-.2.4-.2h.2c0,0,.2-.2.2-.2h.4c0,0,.6-.4.6-.4l.6-.3.3-.2.4-.2.3-.2h.2c0,0,0-.2,0-.2h0l.5-.4v3c0,0-.2.7-.2.7v.7c0,0-.3.7-.3.7l-.2.7-.4,1.7-.4,1.7-.4,1.6-.5,1.6-.5,1.6-.5,1.6-.6,1.6-.4.8-.3.8.6-.2.6-.2.6-.2h.2c0,0,.2,0,.2,0h.4c0,0,.3-.2.3-.2h.2c0,0,.2,0,.2,0l.6-.2h.3c0,0,.2-.2.2-.2h.2l.6-.2.5,5,.6,5.1,1.3,11.2v.8c0,0,.3.8.3.8l.2.8.2.8.4,1.5.2.7.2.8.4,1.5.5,1.5h.2c0,0,.2-.2.2-.2h0c0,0,0-.2,0-.2h0c0,0,0-.2,0-.2l.2-.2h0c0,0,0-.2,0-.2v-.2c0,0,.2-.2.2-.2l.4-.7.4-.6.4-.5.4-.4.4-.4.4-.3.4-.2h.4c0,0,.4,0,.4,0h.4c0,0,.4.3.4.3l.5.3.4.3.5.4.5.4.5.5,1.7,1.9,1.7,2,1.7,2,1.7,2.1.3.3.3.3.3.3.3.3.3.2.3.2.2.2h0c0,0,0,0,0,0h0c0,0,.2.2.2.2h.2c0,0,.2.2.2.2h1c0,0,.2-.2.2-.2h0c0,0,0-.2,0-.2h.2c0,0,0-.3,0-.3v-.2c0,0,0,0,0,0h0c0,0,0-.3,0-.3v-.3c0,0,0-.2,0-.2h0v-.2h0v-.6c0,0,0-.4,0-.4v-.4c0,0,0-.4,0-.4v-.4c0,0,.6.6.6.6l.5.6.6.5.6.5.6.4.7.4.7.4.7.4v-2.3l1.4.4,1.4.4,1.3.4,1.3.4,1.2.4.5.2.6.2h.5c0,0,.5.2.5.2h.5c0,0,.3,0,.3,0h.9c0,0,0,0,0,0h3.6c0,0-.5-.4-.5-.4l-.5-.3-.6-.3-.7-.2-1.5-.4-1.5-.5-.7-.3-.7-.4-1.4-.6-.7-.4-.6-.4-.6-.4-.6-.4-.6-.4-.6-.4-.6-.4-.5-.4v.4c0,0-.2.4-.2.4v.3c0,0-.2.2-.2.2h0v.2l-.2.3h0c0,0,0,.3,0,.3h0v.2l-.2.3h0c0,0,0,0,0,0h0c0,0-.2-.3-.2-.3l-.4-.3-.4-.3-.4-.3-.5-.4-.5-.4-.5-.4-.5-.4-.4-.3-.4-.3-.4-.3-.4-.3-.4-.3-.4-.3-.6-.6-.6-.6-.5-.7-.5-.7-.3.3-.2-.4-.3-.4-.3-.4-.3-.4-.3-.4-.3-.3-.3-.3-.3-.2h-.3c0,0-1.3,0-1.3,0h-.3c0,0-.3.3-.3.3l-.3.3-.2.3-.3.3-.2.4-.3.4-.2.4-.7-1.1-.4-.5-.4-.5-.4-.8-.4-.8-.4-.8-.4-.9-1-2.1-.9-2.1-.9-2.1-.8-2-.2.2-.3.2-.3.2-.3.2h-.2c0,0-.2.2-.2.2l-.4.2-.4.2-.4.2-.3-.5-.2-.5-.2-.5-.2-.5-.2-.5v-.5c0,0-.3-1.2-.3-1.2v-.6c0,0-.2-.6-.2-.6v-.6c0,0,0-.6,0-.6v-2.9c0,0,.2-1.4.2-1.4l.2-1.4.2-1.4.3-1.3.2-.9v-.4c0,0,.2-.4.2-.4v-1.7c0,0,0-.3,0-.3v-.5c0,0-.3-.5-.3-.5v-.3c0,0-.2-.2-.2-.2l-.4-.4-.2-.2-.2-.2-.4-.3-.4-.2-.5-.2h-.5c0,0-.4,0-.4,0h-1.1l.6-.9.7-.9.7-1,.7-1.1.2-.3.2-.3.4-.5.4-.5.2-.3.2-.3.2-.3.2-.3.4-.5.3-.5.3-.5.3-.6.3-.6.3-.6.3-.6.2-.6.3-.6.2-.6.2-.6.3-.9.3.3.3.3.5.4h0l.4.2.4.2h.4c0,0,.4.2.4.2l-.4,2.6-.3,2.6-.2,2.6v4.5c0,0,.2.5.2.5v.5c0,0,.3.5.3.5l.2.4.2.4.2.4.3.4.3.3.4.3.4.3.4.3.4.2.4.2.2.7.2.8.2.8.2.8.3,1.6v.8c0,0,.2.9.2.9v.6c0,0,.2.6.2.6v.6c0,0,.2.6.2.6l.3,1.3.4,1.2.2.5.2.5.2.5.3.5.4,1,.5.9v-.4c0,0,0-.4,0-.4v-1.4c0,0,.2-.4.2-.4v-.3c0,0,.4-.7.4-.7l.3-.6.3-.6v-.3c0,0,.2-.3.2-.3v.7c0,0,.2.7.2.7l.2.7.2.7.3.7.3.7.2.4.2.4.4.7.8,1.4.4.6.4.6.4.6.4.6,1,1.3,1.1,1.2.5.5.5.5.5.5.6.5,1.3,1,.4.3.2.2.2.2.8.6.8.5.8.5v-3.9l.4,1.1.4,1.1.5,1,.6,1,.4.5.4.5.8,1,1.1,1.3,1.1,1.2,1.2,1.1,1.2,1.1,1.2,1,1.2,1,1.2.9,1.2.8v-.9c0,0,.3-.7.3-.7l.2-.6.2-.5.2.4.2.4.2.4.3.4.2.4.3.4.3.4.3.4.3.4.3.4.3.3.4.3.7.5.4.3.4.3.9.5.9.4,1,.4,1,.4,1.1.3,1.1.3,1.1.2,1.2.2v-1c0,0,.2-.4.2-.4v-.4c0,0,.2-.3.2-.3l.2-.3.2-.2.2-.2h.2c0,0,.3-.2.3-.2h.5c0,0,.3.2.3.2l.3.2.4.2.4.3.6.5.7.5,1.4.9.7.4.7.4,1.4.7,1.4.6.7.3.7.3.7.3.7.2.8.2.8.2.8.2.8.3h-.6c0,0-.4,0-.4,0h-10.1c0,0-1.1.2-1.1.2h-1.1c0,0-1.1.2-1.1.2l-1,.2v1.1c0,0,.2.4.2.4v.4c0,0,.3.4.3.4l.2.3.2.3h-2.2c0,0-.5-.2-.5-.2h-.5c0,0-.4-.3-.4-.3l-.4-.2-1.5-.5-1.4-.4-1.4-.3-1.4-.2h-1.4c0,0-.7,0-.7,0h-.7c0,0-1.4.3-1.4.3l-1.4.3.3.4.3.3h0c0,0,0,.3,0,.3h0c0,0,0,.3,0,.3l.2.2.2.2.2.2h0c0,0-.9.7-.9.7l-.9.6-.9.6-.8.7-.8.7-.8.7-.7.8-.7.8-.4.5-.4.4-.5.4-.5.4-.5.4-.5.4-.5.4-.5.4-.6.4-.3.2-.3.2h-.4c0,0-.3.3-.3.3l-.6.3-.6.2-.6.2-.6.2h-.4c0,0-.4.2-.4.2M373.3,230.2l-.5.4-.4.4-1,.7-1,.7-1,.7-2.1,1.3-1.4,1-1.3.5-.5.3-.6.3-.5.3-.6.3-.6.3-.6.2-.6.2-.6.2-.6.2h-.7c0,0-.6.2-.6.2h-.6c0,0-.6.2-.6.2h-1.3c0,0-1.3,0-1.3,0h-2.7c0,0,0,0,0,0h-1.3c0,0-1.3-.2-1.3-.2l-1.3-.2-1.2-.2-.5-.2-.5-.2-1.1-.4-.5-.3-.5-.3h0l-.9-.5-.4-.4-.4-.4-.8-.8-.4-.4-.4-.4-.4-.4-.4-.4-1.3,3.9,1.1,3-1.7.3h-.8c0,0-.8.2-.8.2h-.9c0,0-.9.2-.9.2h-.9c0,0-.9.2-.9.2h-1.8c0,0-.4,0-.4,0h-1.3c0,0-.9,0-.9,0h-7.2c0,0-1.4-.2-1.4-.2h-1.4c0,0-1.4-.3-1.4-.3l-1.4-.2-1.4-.2h-2.2c0,0-1.1-.3-1.1-.3l-1.1-.2-1.1-.3-1.1-.3-1.1-.4-1-.4-1.1-.5h-.2c0,0-1.5-.5-1.5-.5l-1.5-.4-1.5-.5-1.4-.5-1.5-.6-1.4-.6-1.4-.6-1.4-.7-1.4-.7-1.4-.7-1.3-.8-1.3-.8-1.3-.9-1.3-.9-1.3-.9-1.3-1-.7-.6-1.1-.9-2.1-1.8-1.1-.9-1.1-1-1.1-1-1-1-.6-.6-1.6-1.7-.8-.8-.7-.8-1.4-1.7-.7-.9-.6-.8-1-1.3-.9-1.3-.9-1.3-.9-1.3-.9-1.3-.8-1.3-.8-1.3-.7-1.3-.7-1.4-.6-1.3-.6-1.4-.6-1.4-.6-1.4-.5-1.4-.5-1.4-.4-1.4-.4-1.1-.4-.3-.4-.3-.4-.4-.4-.4-.4-.4-.4-.4-.4-.4-.3-.4-.3-.4-.3-.4-.3-.5-.2-.5-.2-.5-.2-.5-.2-.6v-.6c0,0-.2-.5-.2-.5h0l-.3-1.2-.2-1.1-.2-1.2v-1.2c0,0-.2-1.2-.2-1.2v-1.2c0,0-.2-1.2-.2-1.2v-2c0,0-.2-.4-.2-.4v-.3c0,0-.3-.4-.3-.4l-.2-.3-.3-.3-.3-.3-.3-.3-.4-.2-.4-.2-.4-.2-.4-.2h-.4c0,0-.5-.2-.5-.2h-.5c0,0,0-.2,0-.2h0c0,0,.2-.3.2-.3h0c0,0,0-.2,0-.2l.2-.3v-.2c0,0,.2,0,.2,0l.2-.3v-.3c0,0,.2-.2.2-.2h0v-.4c0,0,0-.2,0-.2v-.2c0,0,.2-.4.2-.4v-.4c0,0,0-.4,0-.4v-1.1c0,0,0-.5,0-.5v-1.9c0,0-.2-.4-.2-.4v-.4c0,0-.3-.3-.3-.3l-.2-.4-.2-.3-.3-.3-.3-.2-.3-.2-.3-.2h-.4c0,0-.4-.2-.4-.2h-.4c0,0-.4,0-.4,0h-1.6c0,0-.4.2-.4.2h-.4v.2l.5.3.4.3.4.4.4.4.4.4.3.4.3.4.2.4v.4c0,0,.2.4.2.4v1.3c0,0-.2.4-.2.4l-.2.5-.2.5-.4.6-.4.7-.4.6-.4.6-.5.6-.2.2h0c0,0-.3.4-.3.4h-.2l-.3.2h-.2c0,0-.4.4-.4.4l-.5.3-.4.3-.5.3-.5.3-.5.2-.5.2h-.5c0,0-.5.3-.5.3l-.5.2-.4.3-.4.3-.4.4-.4.4-.4.4-.7.8-.7.8-.7.8-.6.8-.2.3-.2.3-.5.4-.5.5-.6.5-.6.5-.5.3-.5.3h0-3.2c0,0-.4-.3-.4-.3l-.3-.2-.3-.2-.3.3-.2-.2-.2-.2-.2-.2-.2-.3v-.3c0,0-.3-.3-.3-.3v-.3c0,0-.2-.4-.2-.4v-.4c0,0-.2-.4-.2-.4v-3.4c0,0-.2-.4-.2-.4v-.4c0,0-.2-.4-.2-.4l-.2-.4-.2-.4v-.2c0,0-.2,0-.2,0v-.2c0,0-.2,0-.2,0l-.3-.2h-.2c0,0,0-.2,0-.2h-.3c0,0-.3-.2-.3-.2h-.4v1.4c0,0,0,.6,0,.6v3.2c0,0,0,.5,0,.5v.5c0,0,.3,1.1.3,1.1l.2,1.1.3,1,.2.5.3.4v.2c0,0,.3.2.3.2l.3.4h.3c0,0,.3.3.3.3h0c0,0,.4.4.4.4h.2c0,0,.3.2.3.2h.4c0,0,.2,0,.2,0h1.6c0,0,2.1.2,2.1.2l2.7-1h0l.3-.2h0l.4-.4.6-.4.5-.4.5-.4.4-.4.4-.4.4-.4.3-.3,1-1.3,1-1.2.2-.4.3-.3.2-.3.2-.2.2-.3.2-.2.4-.4v-.2c0,0,.2,0,.2,0h0c0,0,0,0,0,0h.2c0,0,3-1.1,3-1.1l.2-.2h.3c0,0,.4-.2.4-.2h.4c0,0,.4-.2.4-.2h1.7c0,0,0,0,0,0h.2c0,0,.6.3.6.3l.6.2h.5c0,0,.4.2.4.2h.4c0,0,.4.3.4.3l.4.2.3.2.3.2.2.2.2.3.4.8.4.9.4.9.3,1,.2.9.2,1v1c0,0,.2,1.1.2,1.1h0v2.1c0,0,0,.2,0,.2h0v.2h0v.4c0,0-.2,0-.2,0h0c0,0,0,.3,0,.3h0c0,0,0,.3,0,.3l-.3.3h0c0,0-.2.3-.2.3l-.4.3-.4.3-.7.4-.4.2-.4.3h-.4c0,0-.4.2-.4.2h-2.4c0,0-.3-.2-.3-.2h-.3c0,0-.4-.3-.4-.3l-.7-.4-.7-.3-.6-.3-.6-.2-.5.3h-1.5c0,0-.4.3-.4.3l-.4.3-.4.3-.3.4-.3.4v.3c0,0-.2.3-.2.3v.3c0,0-.2.3-.2.3v.6c0,0-.2.4-.2.4v.4c0,0-.3.4-.3.4l-.2.4-.2.4-.2.4v.2c0,0-.2.2-.2.2v.2c0,0-.2.2-.2.2l-.3.3-.3.3h-.2c0,0,0,.3,0,.3h-.2c0,0,0,.3,0,.3l-.4.3-.3.3-.4.2-.4.2-.7.4-.7.3-.6.3-.6.2h-.6c0,0-.6.2-.6.2h-1.2c0,0-.5-.3-.5-.3l-.5-.2-.5-.3-.4-.4-.4-.4-.4-.4-.4-.5-.4-.5v.7c0,0-.2.7-.2.7v.6c0,0-.2.6-.2.6v.6c0,0-.2.4-.2.4v.6c0,0-.2.4-.2.4v.6c0,0-.2.3-.2.3v.3c0,0-.3.5-.3.5h0v.6c0,0-.3.5-.3.5l-.2.5-.2.5-.2.4-.2.5-.7-2.2-.7-2.2-.8-2.1-.8-2.1-.4-1.1-.3-1.1-.2-1.1v-2c0,0,.3-1,.3-1v-.5c0,0,.3-.4.3-.4l.4-1,.2-.4.3-.4.3-.4.4-.4.4-.4.4-.4.5-.4.5-.3h-2.3c0,0-.4-.2-.4-.2h-.4c0,0-.4-.2-.4-.2l-.4-.2-.4-.2-.3-.2-.3-.2-.3-.3-.3-.3-.3-.3-.2-.3-.2-.4-.2-.4-.2-.4v-.4c0,0-.2-.4-.2-.4v-.4c0,0-.2-.4-.2-.4v-.4.2c0,0-.3.2-.3.2l-.2.2-.2.2h-.2c0,0-.2.2-.2.2h-.3c0,0-.3.2-.3.2h-.6c0,0-.6.2-.6.2h-1.7c0,0-.5-.2-.5-.2h-.5c0,0-.5-.2-.5-.2l-.5-.2-.4-.2-.4-.3-.4-.3-.4-.3-.4-.3-.4-.4-.4-.4-.4-.4-.4-.4-.4-.4-.3-.4-.3-.5-.3-.5-.3-.5-.2-.5-.2-.5v-.5c0,0-.2-.5-.2-.5v-.6c0,0,0-.6,0-.6v-1.9c0,0,.2-.6.2-.6l.2-.6.2-.5v-.3c0,0,.3-.3.3-.3l.3-.5.4-.4.4-.4.4-.4.4-.4.3-.2h.3c0,0,.5-.4.5-.4l.5-.2.6-.2h.4c0,0,.4,0,.4,0h.7c0,0,.7,0,.7,0h.8c0,0,.3-.2.3-.2l.5-.2.3-.2.3-.2.2-.2.2-.3v-.2c0,0,.2,0,.2,0h0c0,0,0-.2,0-.2v-.2c0,0,.3-.4.3-.4v-.2c0,0,.2-.2.2-.2v-.2c0,0,.2-.2.2-.2h0v-.4c0,0,.3-1,.3-1l.2-1.1v-.5c0,0,.2-.5.2-.5v-.5c0,0,0-.3,0-.3v-.2h0c0,0,0,0,0,0h0v.2h0c0,0,0,.5,0,.5l-.2.4-.2.4-.2.4-.2.4-.2.3-.2.3-.3.3-.3.2-.3.2-.3.2h-.4c0,0-.4.2-.4.2h-.4c0,0-.2,0-.2,0h-3c0,0-.6-.2-.6-.2h-.6c0,0-.5-.2-.5-.2h-.5c0,0-.5-.2-.5-.2h-.5c0,0-.4-.2-.4-.2l-.4-.2-.4-.2-.4-.2-.4-.2-.4-.2-.4-.2-.4-.2-.4-.2h-.2c0,0,0,.3,0,.3h-.2c0,0,0,.3,0,.3l-.3.3-.3.3-.3.2-.3.2-.4.2-.4.2-.4.2-.4.2h-.4c0,0-.4.2-.4.2h-.7c0,0-.2,0-.2,0h-.5v-3.8c0,0-.2-.4-.2-.4v-.4c0,0-.2-.4-.2-.4l-.2-.4-.2-.4-.2-.4-.2-.4-.3-.4-.3-.3-.4.4-.4.4h-.4c0,0-.4.2-.4.2h-1.9c0,0-.5-.3-.5-.3h-.3c0,0-.2-.2-.2-.2l-.2-.2-.2-.2-.2-.2v-.2c0,0-.3-.2-.3-.2v-.2c0,0-.2-.3-.2-.3v-.3c0,0-.2-.5-.2-.5v-2.1c0,0,.2-.4.2-.4v-.4c0,0,.2-.4.2-.4l.2-.4-.5-1.3-.5-1.3,3.9-10.8-.4-1.2-.9-2.4-.4-1.2-.4-1.2-5.8,12.5-1.3,2.9-1.5,3.5-.7,1.8-.7,1.9-.9,2.3-.9,2.3-1,2.3-1,2.4-.3,1.8-.5,1.2-.4,1.2-.4,1.3-.4,1.3-.4,1.3-.4,1.3-.4,1.3-.4,1.5-.4,1.6-.7,3.2-.4,1.6-.3,1.6-.3,1.6-.3,1.7v.5c0,0-.3,1.3-.3,1.3l-.2,1.3-.2,1.3v1.3c0,0-.3,2.7-.3,2.7v1.3c0,0,0,1.3,0,1.3l-.5,16.9v3.4c0,0,0,3.5,0,3.5v14.2c0,0,.3,3.7.3,3.7v1.3c0,0,.3,1.3.3,1.3l.2,1.3.3,1.3.3,1.3.3,1.3.4,1.3.4,1.3.3.8.3.8.6,1.5.4.7.4.8.7,1.5.4.7.4.7.9,1.4.4.7.4.7.5.7.5.7.7.9.4.4.4.4.8.8.4.4.4.4.9.8.4.4.4.4,1,.8,1,.8,1.3.9,1.3.9,1.3.8,1.3.8,1.3.7,1.3.6,1.3.6,1.3.5,1.5.5,1.5.5,1.5.4,1.6.4,1.6.4,1.7.4,1.7.3,1.7.3,1.4.2,1.5.2h1.4c0,0,1.5.2,1.5.2h4.5c0,0,1.5-.2,1.5-.2l-.4-.4-.4-.4-.4-.4-.3-.4-.3-.5v-.3c0,0-.2-.3-.2-.3v-.5c0,0,0-.3,0-.3v-.3l1.5.3,1.6.2h1.6c0,0,1.7.2,1.7.2h3.4c0,0,1.7-.3,1.7-.3l1.8-.2,1.3-.2,1.3-.2,1.3-.3,1.3-.3h.2c0,0,.2,0,.2,0h.4c0,0,.6-.3.6-.3h.2c0,0,.2,0,.2,0h.4c0,0,.6-.3.6-.3l.6-.2h.2c0,0,.2,0,.2,0h.4c0,0,1.3-.4,1.3-.4l1.3-.4,1.3-.4,1.3-.4,1.3-.4,1.2-.5,1.2-.4,1.2-.5,1.2-.5,2.5-1.2,2.6-1,2.6-.9,2.7-.8,1.5-.4,1.5-.3,1.5-.2h1.5c0,0,1.5,0,1.5,0h1.5c0,0,1.5.3,1.5.3l1.5.2v-.5c0,0-.2-.3-.2-.3v-.5c0,0-.2-.3-.2-.3v-.5c0,0-.3-.6-.3-.6v-.3c0,0-.2-.3-.2-.3v-.4c0,0-.2-.3-.2-.3l-.3-.6.4-.3.4-.3.4-.3.5-.2.4-.2.5-.2.5-.2h.5c0,0,.5-.2.5-.2h.5c0,0,.6-.2.6-.2h3.2c0,0,1.6.3,1.6.3l1.7.2,1.6.2,1.6.3,3.2.5,3.2.6.7.2.8.2.7.2.8.2.7.2.7.3,1.4.4,1.4.5,1.4.5,1.4.6.6.4.7.4-.6-.7-.6-.7-.4-.4-.4-.3-.6-.5-.7-.5-.4-.3-.4-.3-.7-.4-.4-.2-.4-.2h.3c0,0,.3,0,.3,0h.5c0,0,.5-.2.5-.2h.5c0,0,1.5-.6,1.5-.6l1.6-.4,1.6-.4,1.6-.4,1.6-.4,1.7-.3,1.7-.3,1.7-.2,1.8-.3,1.8-.2,3.6-.3h1.8c0,0,1.8-.2,1.8-.2h3.7c0,0,1.8,0,1.8,0h1.8c0,0,1.7.2,1.7.2l1.8.2,1.7.2,1.7.3h.8c0,0,.9.3.9.3l1.7.3,1.7.3,1.7.3,1.7.3,1.8.3,1.8.2,1.8.2,1.8.2h1.9c0,0,1.3,0,1.3,0h1.3c0,0,1.3,0,1.3,0h5.2c0,0,1.3,0,1.3,0h.5c0,0,.5-.2.5-.2l1.1-.2,1-.3.5-.2.5-.2h.3c0,0,.3-.2.3-.2l.5-.2,1-.4.4-.3h0c0,0,0,0,0,0h.4c0,0,.9-.6.9-.6l.5-.4.5-.4.5-.4h0c0,0,.2-.2.2-.2l.3-.2.5-.4.3-.2h0c0,0,.2-.2.2-.2l.4-.4.4-.4.4-.4.4-.4.4-.4.4-.4.4-.5.4-.5.4-.5.4-.5.4-.6.4-.6.6-1.2.3-.6.3-.5.3-.5.3-.5.2-.5.2-.5.4-1.1.3-1.1v-.4c0,0,.2-.5.2-.5l1.3-6.4.6-4.5-5.7,4.9-.7.6M215.3,157.8l.6,1.1.6,1.1.5,1.1.4,1.2.4,1.2.4,1.2.3,1.2.3,1.2v1h0v.4c0,0-.2.2-.2.2h0c0,0-.2.2-.2.2h-.4c0,0-.4.2-.4.2h-.9c0,0-.2-.2-.2-.2h0v-.2h0v-1.5c0,0-.2-1.3-.2-1.3l-.3-2.7-.2-1.3-.2-1.3-.4-2.5h0ZM263,227.5l-.7-.4-.7-.4-.9-.5-.9-.5-.9-.4-.9-.4-.9-.4-.9-.4-1-.4-1-.3h-.4c0,0-.4-.2-.4-.2h-.4c0,0-.4,0-.4,0h-1.2c0,0-.3.2-.3.2h-.3c0,0-.3.2-.3.2h-.2c0,0-.3.2-.3.2l-.2.2-.2.2-.2.2-.4-1.3-.2-.6-.2-.6-.4-1.3-.3-.6-.3-.5-.3-.6-.3-.5-.4-.5-.4-.5-.4-.5-.4-.5-.7-1-.5-.5-.4-.5-.4-.4-.4-.4-.4.8-.4.9-.4.9-.3,1-.3,1-.2,1.1v.5c0,0,0,.5,0,.5v1.2l-.4-.4-.4-.4-.8-.6-.8-.7-.7-.8-.4-.4-.4-.4-.6-1-.6-1-.5-1.1v-.2c0,0-.2-.2-.2-.2l-.2-.3-.2-.2h-.4c0,0-.2.3-.2.3h0c0,0,0,.3,0,.3l-.2.4-.3.4-.3.4-.3.4-.2.4-.4-1.2-.2-.6-.2-.5-.2-.6-.2-.6-.3-1.3-.3-1.3-.2-1.3v-1.3c0,0-.2-1.3-.2-1.3v-2.2c0,0-.2-.4-.2-.4v-.4c0,0-.2-.3-.2-.3v-.3c0,0-.2-.3-.2-.3v-.3c0,0-.2-.2-.2-.2v-.2c0,0-.2-.2-.2-.2l-.2-.2h0c0,0-.2-.2-.2-.2h-.2c0,0-.2-.2-.2-.2h-.9c0,0-.3.2-.3.2h-.2c0,0-.3.2-.3.2l-.3.2-.3.2-.3.2-.5.5-.4.4-.4.4-.4.4-.4.4-.4.4-.3.4-.3.5-.2.5-.2.5-.2.5-.2.5v.6c0,0-.2.6-.2.6v.6c0,0-.2.6-.2.6v2.3c0,0,.2.3.2.3v.3c0,0,.2.3.2.3v.3c0,0,.2.2.2.2v.2c0,0,.3,0,.3,0h.2c0,0,.2,0,.2,0h.5c0,0,.4-.2.4-.2h.4c0,0,.4-.2.4-.2h1.1c0,0,.3.2.3.2l.3.2.3.2.3.2.3.3.3.3.2.3.2.4v.2c0,0,.2.2.2.2l.2.4.2.5.2.5.4,1.1.4,1.1.3.5.3.5.3.4.4.5.4.4.4.4.7.9.4.4.4.4.7.6.7.6.7.5.8.5.9.4.4.2.4.2.2-.4.2-.4v-.3c0,0,.3-.3.3-.3l.2-.3.2-.2.2-.2h.2c0,0,.2-.2.2-.2h.6c0,0,.3.2.3.2l.3.2.3.2.3.3.3.3.3.3.5.5.3.4.3.4.4.5.4.5.4.5.5.5.5.5.5.5.5.5.5.5.5.4.6.4.6.4.6.4.6.4.7.4.7.4.7.4.7.3.8.3.8.3.8.3v-.4c0,0-.2-.4-.2-.4v-.6c0,0-.2-.5-.2-.5v-1.2c0,0,0-.2,0-.2h0c0,0,0-.2,0-.2h0c0,0,.2-.2.2-.2h.5c0,0,.2.2.2.2h.2c0,0,.2.2.2.2h.2c0,0,.4.4.4.4l.4.4.3.2.3.3.6.5.6.5.6.5.7.5,1.4,1,1.5,1,.7.4.8.4.8.4.8.4,1.6.8.8.4.9.4.7.4.7.3.7.3.8.3,1.5.4,1.6.4.8.2h.8c0,0,.8.2.8.2h.9c0,0,1.7.2,1.7.2h3.7c0,0,.2,0,.2,0h1.1c0,0,.5-.3.5-.3l.5-.2.5-.2.5-.2.5-.3.3-.2h0c0,0,.2-.2.2-.2l.5-.3.5-.3.4-.4.3-.2.3-.2.5-.4.6-.5.6-.5.6-.6.7-.6-2.3-1.5-2.4-.6-1.2-.7-1.2-.6-1.3-.6-1.2-.6-.6-.4-.6-.4-.5-.4-.4-.4-.4-.4-.4-.4-.4-.4-.3-.4v1.5c0,0-.2.4-.2.4v.4c0,0-.3.4-.3.4l-.2.4-.2.3h0c0,0,0,.2,0,.2h0c0,0,0,0,0,0h0c0,0-.2.3-.2.3h-.2c0,0,0,0,0,0h-1.1c0,0,0-.2,0-.2h0c0,0-.3-.3-.3-.3h0c0,0,0,0,0,0l-.3-.3-.2-.2v-.2c0,0-.4-.4-.4-.4l-.2-.2h0v-.2h0l-.3-.4-.3-.3-.3-.3-.3-.3-.3-.3-.3-.3-.5-.4-.5-.4-.5-.3-.6-.3-.6-.2-.5-.2-.5-.2-.5-.3-.4-.3h0v.4c0,0,0,.2,0,.2v.2c0,0,0,.2,0,.2v.2h0v.2h0v.2h0v.2h0c0,0,0,0,0,0h-.8c0,0-.2-.2-.2-.2h-.2c0,0,0,0,0,0h0l-.2-.2h0c0,0,0,0,0,0h0l-.2-.2-.2-.2-.3-.2-.3-.2-.3-.2-.3-.2-1-.8-1-.7-1-.6-.9-.5-.9-.5-.9-.4v.3h0v.6h0v.8h0c0,0,.4.2.4.2h0ZM272.1,226.6l1.2.4-.2-.4-.4-.8-.4-.7-.9-1.4-1-1.3-.4-.6-.4-.5-.6-.7-.6-.6-.7-.6-.6-.5-.7-.5-.4-.3-.4-.2-.7-.4-.7-.4-1.1-.5-1.1-.5-1.1-.6-1-.6-1-.7-1-.7-1-.7-1-.8-1.2-1.1-1.1-1-1-1.1-.4-.5-.4-.5-.4-.5-.4-.5-.8-1.1-.7-1.1-.4-.5-.4-.5.4.4.4.4.4.4.4.4.8.7.4.4.4.4.4.3.4.3.4.3.4.3,1,.4.4.2.5.2.7.2h.4c0,0,.4,0,.4,0h1.7l-.8-.8-.4-.4-.4-.4-.4-.4-.3-.4-.3-.4-.3-.4-.5-.9-.4-.9-.4-.9-.2-.4v-.4c0,0-.2-.3-.2-.3v-.2c0,0-.2-.2-.2-.2v-.2c0,0-.3-.3-.3-.3l-.2-.3-.2-.2h0c0,0,0-.2,0-.2h-.2c0,0-.2,0-.2,0h-.4c0,0,0,0,0,0h0c0,0,0,.2,0,.2h0c0,0-.3.3-.3.3l-.3.3-.2.2v.2c0,0-.3.2-.3.2v.2c0,0-.2-.9-.2-.9v-.9c0,0-.2-.9-.2-.9v-7.1c0,0-.2-.5-.2-.5v-.4c0,0-.3-.4-.3-.4l-.2-.4-.2.3-.3.3-.3.3-.4.3-.4.3-.4.3-.4.3h-.2c0,0,0,.2,0,.2l-.3.2h-.3c0,0-.2,0-.2,0h-2.3l.2.4h0c0,0,0,.2,0,.2v.2c0,0,.3.4.3.4h0v.4c0,0,.3.3.3.3l.2.2.2.2h0c0,0,0,0,0,0h-.5c0,0-.4.2-.4.2h-1.8c0,0-.4-.2-.4-.2h-.4c0,0-.4-.3-.4-.3l-.4-.2-.4-.2-.4-.3-.4-.3-.4-.3-.4-.3-.4-.4-.2-.2-.2-.2-.5-.4-.3-.2-.4-.2-.4-.2-.4-.2-.6,1.1-.5,1.1-.5,1.2-.4,1.2-.4,1.3-.3,1.3-.2,1.3v1.3c0,0,0,.6,0,.6v1.9c0,0,.2.5.2.5v.5c0,0,.2.5.2.5l.2.5.2.4.2.4.2.4.3.4.3.4.3.4.4.4.4.4.3-.4.4-.4.4-.4.4-.4.5-.4.6-.4.6-.4.7-.4.6-.4.6-.3.6-.2h.6c0,0,0,.4,0,.4v2.2c0,0,.2.4.2.4v.4c0,0,.2.4.2.4l.2.4.2.4.2.4.2.4.3.4.3.4.3.4.8.9.8.9.8.8.8.8.8.7.8.7.8.6.8.6v-.4c0,0,.2-.4.2-.4v-.4c0,0,.2-.4.2-.4v-1.1l.5.6.5.7.5.7.6.7.6.8.6.8.6.8.7.9.4.4.4.4.2.2.2.2.4.3h.2c0,0,0,0,0,0h0l.4.2h.3c0,0,.2,0,.2,0h.4c0,0,0,0,0,0h.4c0,0,0-.2,0-.2l.3-.2v-.2c0,0,.2,0,.2,0l.2-.4h0v-.2h0v-.2c0,0,.2-.2.2-.2v-.2c0,0,.7.7.7.7l.6.6.7.6.4.3.4.4.8.5.9.5.9.5.4.3.5.3,1,.4,1,.4,1,.4,1.9.8Z"/>
            <polygon class="cls-2" points="258 60.7 251.8 58.7 251.8 58.2 251.8 57.8 251.8 57.7 251.8 57.6 251.9 56.5 251.8 55.3 251.8 54.2 251.8 53 251.7 51.8 251.6 51.1 251.6 50.5 251.5 49.2 251.3 48 251.2 46.7 251 45.3 250.9 44.6 250.8 44 250.7 43.3 259.1 37.5 256.2 34.2 255.2 33.9 255.4 32.5 253.6 33.9 247 40.3 244.4 42.5 241.8 44.8 239.1 47.1 236.5 49.5 234 52.1 231.4 54.8 229 57.7 227.7 59.1 226.5 60.5 224.1 63.5 221.7 66.6 219.3 69.8 216.9 73.1 214.6 76.6 212.4 80.1 210.1 83.7 211.3 83.4 212.5 83.1 213.8 82.9 215.1 82.6 216.4 82.3 217.7 82.1 219.1 82.1 220.4 81.9 221.8 81.8 223.3 81.7 224.7 81.7 226.1 81.7 227.6 81.7 229.1 81.7 230.6 81.8 232.2 82 232.4 81.9 238.8 82.9 239.8 81.2 240.9 79.5 241.9 77.8 243 76.2 244.1 74.6 245.3 73.1 246.4 71.7 247.6 70.3 248.7 68.8 250 67.6 251.2 66.3 252.6 65.1 253.8 63.9 255.2 62.7 256.5 61.7 258 60.7"/>
            <polygon class="cls-2" points="425.9 61.3 425.6 60.6 425.5 59.9 424.9 58.5 425.5 59.9 425.6 60.6 425.9 61.3 426.5 63.5 427 65.6 427.2 66.8 427.4 67.8 427.7 70.2 428 72.4 428.1 74.7 428.2 75.9 428.2 77.1 428.3 79.5 428.2 80.7 428.2 81.9 428 84.4 428 85.6 427.8 86.9 427.7 88.1 427.5 89.4 427.3 90.6 427.2 91.9 426.9 93.2 426.6 94.5 426.1 97.2 425.8 98.4 425.5 99.7 424.7 102.4 424.4 103.8 423.9 105.1 423 107.9 422.1 110.7 421.1 113.5 419.9 116.4 419.4 117.8 418.7 119.2 417.5 122.1 416.8 123.6 416.1 125 414.6 128.1 413.8 129.5 413.1 131 412.3 132.6 411.5 134.1 410.6 135.6 409.8 137.1 408.9 138.7 408 140.2 406.1 143.4 405.3 145 404.3 146.6 404.1 148 404 148.7 403.9 148.8 403.9 149 403.9 149.4 403.8 149.7 403.7 149.9 403.7 150.1 403.6 150.7 403.4 151.9 403.1 153.1 402.9 153.6 402.8 154.2 402.7 154.7 402.5 155.3 402.3 155.8 402.1 156.2 401.8 157.1 401.6 157.6 401.4 158 401 158.7 400.7 159.1 400.5 159.5 400 160.1 399.5 160.7 399 161.2 398.7 161.4 398.5 161.6 398.5 161.6 398.5 161.7 398.5 163 398.5 164.3 398.6 167 398.6 167.5 398.6 168 398.6 169.2 398.5 171.3 398.5 171.6 398.8 173.4 399.1 175.2 399.2 176 399.2 176.3 399.3 176.4 399.4 177 399.5 178.8 399.6 180.5 399.7 181.4 399.8 182.2 399.8 183.1 399.9 183.9 400 185.7 400.5 185 401.1 184.4 401.2 184 401.5 183.7 402 182.9 402.6 182.1 403 181.3 403.1 181.1 403.3 180.8 403.6 180.5 404 179.6 404.2 179 404.4 178.6 404.9 177.7 405.3 176.7 405.5 176.2 405.7 175.7 406.1 174.7 406.2 174.4 406.3 174.1 406.6 173.6 407 172.4 407.3 171.3 406.9 173 406.8 173.3 406.6 173.8 406.4 174.5 406 176 405.5 177.5 405.1 178.9 404.6 180.3 404.2 181.6 403.7 183 403.2 184.1 402.7 185.3 402.3 186.4 401.9 187.5 401.3 188.5 401.1 189 400.9 189.5 400.3 190.5 400.2 190.9 399.9 191.4 399.8 192.8 399.7 194.3 399.5 195.7 399.4 197.3 400.4 196.1 401.5 194.9 401.9 194.3 402.5 193.7 402.9 193.1 403.5 192.5 404.4 191.3 405.4 189.9 406.3 188.7 406.9 188 407.3 187.3 408.2 186 409.2 184.6 410.1 183.2 411 181.8 411.4 181 411.6 180.6 411.9 180.3 412.7 178.9 413.6 177.3 414 176.5 414.2 176.2 414.5 175.8 415.3 174.2 416.1 172.7 416.9 171.1 417.7 169.4 418.5 167.8 419.2 166.1 419.4 165.6 419.6 165.2 420 164.4 420.7 162.7 421.1 161.8 421.4 160.9 421.8 160 422.1 159.1 422.9 157.3 423.6 155.4 424.3 153.6 424.6 152.7 424.9 151.7 425.3 150.8 425.5 149.8 426.3 147.8 426.6 146.6 426.9 145.8 427.1 145.1 427.5 143.5 428 141.9 428.4 140.3 428.8 138.8 429.2 137.2 430 134.1 430.5 132.5 430.8 130.9 431.5 127.6 431.6 127.2 431.7 126.8 431.9 126 432.2 124.4 432.9 121.1 433 120.3 433.1 119.9 433.2 119.4 433.5 117.8 434.1 114.5 434.7 111.1 434.7 110.7 434.8 110.2 434.9 109.4 435.3 107.7 435.5 106 435.6 105.6 435.6 105.1 435.7 104.3 436.3 100.8 436.4 99.1 436.6 97.4 437.1 93.9 437.3 92.1 437.4 90.2 437.5 88.4 437.7 86.5 437.7 84.7 437.8 82.9 437.7 81.1 437.7 79.2 437.6 77.4 437.5 75.6 437.3 73.8 437.2 72 437 70.2 436.7 68.4 436.4 66.6 436.1 64.9 435.7 63.1 435.3 61.3 434.8 59.5 434.4 57.7 433.9 56 433.3 54.3 432.8 52.5 432.2 50.8 431.5 49 430.8 47.3 430.1 45.5 429.4 43.8 428.6 42.1 427.7 40.4 426.9 38.6 426 37 424.9 35.4 423.9 33.9 422.9 32.4 421.8 31 420.7 29.6 419.6 28.2 418.5 26.8 417.3 25.6 416.1 24.2 414.9 23.1 413.7 21.8 412.4 20.6 411.2 19.5 409.8 18.4 408.6 17.3 407.2 16.4 405.8 15.4 404.4 14.4 403 13.4 401.6 12.5 400.2 11.7 398.6 10.9 397.1 10.1 395.6 9.3 394.1 8.6 392.6 8 391 7.2 389.3 6.6 387.7 6.1 386 5.5 384.4 5 382.7 4.6 382.2 4.2 380.5 3.7 378.7 3.2 376.9 2.7 375.1 2.3 373.3 1.9 371.5 1.6 369.6 1.3 367.7 1 365.7 .7 363.9 .5 361.9 .4 359.8 .2 357.9 0 355.8 0 353.8 0 351.6 0 349.5 0 347.3 0 345.2 .2 343 .3 340.7 .4 338.5 .6 336.2 .9 333.9 1.2 331.6 1.4 329.2 1.8 326.8 2.1 324.5 2.6 321.9 3 319.5 3.5 317 4 314.5 4.6 310.5 5.5 306.6 6.6 302.6 7.9 298.7 9.2 296.7 9.9 294.8 10.6 290.8 12.2 287 13.9 285.1 14.7 283.2 15.6 279.4 17.5 277.5 18.5 275.7 19.6 273.8 20.6 271.9 21.6 268.1 23.9 264.5 26.2 260.8 28.7 258.9 29.9 257.1 31.2 253.6 33.9 255.1 35.8 255.8 36.7 256.5 37.7 257.2 38.7 257.2 38.8 257.3 38.9 257.5 39.1 257.9 39.7 259.2 41.6 259.8 42.5 260.4 43.4 261.5 45.4 262.1 46.4 262.6 47.3 263.7 49.2 266 47.6 268.3 45.9 270.6 44.4 273 42.9 275.3 41.4 277.6 40 279.9 38.6 282.4 37.3 284.7 35.9 286.9 34.7 289.2 33.5 290.4 32.9 291.6 32.4 293.9 31.2 296.2 30.1 298.5 29.1 300.9 28.2 303.2 27.2 305.5 26.3 307.8 25.5 310.2 24.7 312.4 23.9 314.7 23.1 317 22.4 319.4 21.8 321.6 21.3 323.9 20.7 326.2 20.2 328.6 19.8 330.8 19.3 333.1 19 335.4 18.7 337.7 18.4 339.1 18.4 340.5 18.4 342 18.4 343.3 18.5 344.7 18.6 346 18.7 347.3 18.8 348.6 18.9 349.8 19 351.1 19.1 352.2 19.3 353.4 19.5 354.6 19.7 355.7 19.9 356.8 20.1 357.9 20.4 358.9 20.6 359.9 20.9 360.9 21.3 361.9 21.5 362.8 21.9 363.7 22.3 364.6 22.5 365.5 23 366.3 23.3 367.1 23.8 367.9 24.1 368.6 24.6 369.3 25.1 370 25.6 370.7 26 371.4 26.5 372 27.1 372.5 27.6 373.2 28.2 373.7 28.8 374.1 29.3 374.7 29.9 375.1 30.6 375.6 31.2 375.9 31.8 376.4 32.5 376.7 33.2 377 34 377.4 34.6 377.6 35.4 377.9 36.1 378.1 36.9 378.3 37.7 378.5 38.5 378.6 39.3 378.7 40.1 378.8 41 378.9 41.8 379 42.7 379 43.6 379 44.6 378.9 45.5 378.9 46.5 378.8 47.5 378.6 48.4 378.5 49.4 378.3 50.4 378.2 51.5 377.9 52.5 377.6 53.5 377.4 54.5 377.1 55.5 376.7 56.4 376.3 57.4 375.8 58.3 375.7 58.8 375.5 59.3 375 60.2 374.7 60.6 374.4 61 374.1 61.5 373.9 61.9 373.6 62.3 373.3 62.7 373 63.2 372.7 63.5 372.1 64.4 371.4 65.2 370.7 66.1 370.3 66.4 369.9 66.8 369.1 67.6 368.3 68.3 367.5 69.1 366.6 69.7 365.7 70.4 365.3 70.8 364.8 71.1 364.3 71.5 363.9 71.9 362.8 72.5 362.3 72.8 361.8 73.1 361.3 73.4 360.7 73.7 359.7 74.4 359 74.6 358.5 74.9 357.3 75.5 356.2 76.1 354.9 76.6 354.3 76.9 353.7 77.1 353 77.4 352.3 77.7 351 78.1 349.7 78.7 348.3 79.1 346.9 79.5 345.4 80 343.9 80.4 342.4 80.8 340.8 81.2 339.3 81.5 338.5 81.7 337.7 81.9 336.8 82.1 336 82.2 335.2 82.4 334.3 82.6 332.6 82.9 330.9 83.1 329.1 83.4 328.1 83.6 327.2 83.7 326.3 83.8 325.4 83.9 323.6 84.2 321.6 84.4 319.7 84.6 317.7 84.7 315.7 84.9 313.6 85.1 311.6 85.2 309.5 85.4 308.5 85.4 307.4 85.4 305.1 85.5 304.1 85.5 303 85.6 301.8 85.6 300.8 85.7 298.5 85.7 300.1 86.4 301.7 87.3 302.6 87.8 303.4 88.2 305.1 89.2 306 89.7 306.9 90.3 308.7 91.4 310.6 92.7 312.5 94 314.7 93.7 317 93.5 319.4 93.2 321.7 93.1 321.9 93.1 322.1 93.1 323.5 93.1 324.7 93.1 326 93.1 327.2 93.1 328.5 93.1 329.7 93.2 330.9 93.3 332 93.4 333.2 93.5 334.4 93.7 335.5 93.8 336.6 93.9 337.7 94.1 338.8 94.3 339.8 94.5 340.8 94.7 341.9 95 342.9 95.3 343.1 95.2 343.4 95.2 343.7 95.1 343.9 94.9 344.3 94.7 344.7 94.6 345 94.3 345.4 94.1 345.7 93.8 346.2 93.5 346.6 93.1 347.1 92.8 347.5 92.3 348 91.9 348.5 91.4 349 90.9 349.5 90.5 349.9 90.2 350.4 89.8 350.8 89.6 351.3 89.3 351.7 89.1 352.2 88.9 352.8 88.8 353.2 88.8 353.8 88.7 354.4 88.7 354.9 88.7 355.5 88.8 356.1 88.8 356.7 88.9 357.3 89.1 359.2 87.9 359.3 88 360.6 87.1 361.2 86.6 361.9 86.2 362.5 85.6 363.2 85.2 363.7 84.6 364.4 84.2 365.6 83.1 366.7 82.1 367.9 80.9 368.5 80.3 368.8 80 369.1 79.7 369.6 79.1 370.1 78.5 371.3 77.1 372.3 75.9 372.5 75.5 372.8 75.2 373.3 74.5 373.8 73.7 374.3 73.1 375.3 71.6 375.6 71.2 375.8 70.9 376.3 70.1 377.3 68.6 377.6 67.8 378.2 66.9 379 65.3 379.4 64.4 379.9 63.6 380.7 61.9 381.6 60.2 381.9 59.2 382.3 58.3 382.6 57.3 383.1 56.4 383.8 54.5 384.5 52.6 384.7 52 384.9 51.5 385.2 50.5 385.5 49.5 385.9 48.4 386.1 47.4 386.3 46.9 386.5 46.4 387.1 44.2 387.6 42 388.3 39.8 388.4 39.2 388.5 38.6 388.8 37.5 388.9 39.5 389 40.5 389 40.9 389 41.5 389 42.5 389 43.4 389 43.9 389 44.3 389 45.3 389 46.3 388.9 47.3 388.8 49.2 388.6 51.1 388.4 53 388.1 54.9 387.7 56.8 387.6 57.7 387.5 58.1 387.4 58.5 387.1 59.4 386.9 60.4 386.8 60.9 386.7 61.3 386.4 62.2 385.9 64.1 385.2 65.9 384.6 67.7 383.9 69.4 383.2 71.1 382.3 72.8 381.9 73.7 381.5 74.6 381 75.4 380.6 76.3 380 77.1 379.8 77.6 379.6 78 378.5 79.7 377.5 81.3 376.9 82.1 376.4 83 375.2 84.6 374 86.3 373.3 87.1 372.7 88 372.4 88.3 372 88.7 371.4 89.5 371 89.9 370.7 90.3 369.9 91.1 369.2 91.9 368.9 92.2 368.5 92.7 367.1 94.2 367.5 94.4 367.9 94.6 368.3 94.7 368.7 94.9 369.1 95.1 369.3 95.3 369.7 95.5 369.9 95.8 370.1 96.1 370.4 96.4 370.6 96.7 370.8 97.1 370.9 97.4 371 97.8 371.1 98.2 371.2 98.6 371.3 99 371.3 99.5 371.3 99.9 371.2 100.5 371.2 100.9 371.1 101.4 371 102 370.8 102.6 370.8 103.1 370.6 103.8 370.3 104.3 370.1 105 369.9 105.6 369.6 106.4 369.2 107 369 107.7 369.4 108.1 369.9 108.4 370.1 108.2 370.3 108 370.5 107.9 370.7 107.8 370.8 107.7 371.1 107.7 371.5 107.7 371.9 107.3 372.4 107 373.5 106.5 374 106.2 374.5 105.9 375 105.7 375.5 105.6 375.9 105.4 376.4 105.3 377.3 105.1 377.7 105 378.2 105 378.6 105 379.1 105.1 379.9 105.2 380.2 105.3 380.7 105.5 381 105.6 381.4 105.7 381.7 105.9 382.2 106.2 382.8 106.7 383.2 107 383.5 107.3 383.9 107.7 384.2 108.1 384.5 108.4 384.9 108.9 385.9 107.5 386.8 106.2 388.6 103.5 389.5 102.1 390.4 100.7 391.3 99.4 392.1 98.1 392.9 96.8 393.7 95.5 394.5 94.1 395.2 92.8 396 91.4 396.7 90.1 397.4 88.8 398 87.5 399.3 84.8 400.4 82.2 401 80.9 401.5 79.6 402 78.3 402.5 77 403.4 74.5 404.2 71.9 404.5 70.5 404.9 69.3 405.3 68 405.5 66.8 406.1 64.2 406.5 61.7 406.9 59.2 407.1 56.6 407.3 54.1 407.5 51.6 407.5 50.3 407.5 49.2 407.4 46.7 407.2 44.2 407.1 43 407 41.7 406.6 39.3 406.1 36.9 405.6 34.5 405.3 33.2 405.1 32.1 404.4 29.7 403.6 27.3 404.3 28.3 404.9 29.3 405.5 30.4 406.1 31.5 406.7 32.5 407.3 33.6 407.8 34.8 408.3 35.9 408.7 37 409.2 38.2 409.5 39.3 409.9 40.6 410.3 41.7 410.6 43 410.9 44.2 411.2 45.5 411.3 46.7 411.5 48 411.7 49.2 411.9 50.6 412 51.9 412 53.2 412 54.6 412 56 412 57.3 412 58.7 412 60.2 411.9 61.6 411.7 63 411.5 64.4 411.3 65.9 411.2 67.4 410.9 68.9 410.6 70.3 410.3 72 410 73.5 409.5 75 409.2 76.6 408.7 78.1 408.3 79.7 407.8 81.3 407.3 83 406.8 84.6 406.1 86.3 405.5 88 404.9 89.6 404.3 91.3 403.6 93 402.8 94.8 402.1 96.5 401.3 98.3 400.5 100.1 399.6 101.8 398.7 103.7 397.8 105.5 396.9 107.3 396 109.1 395 111 394 112.9 392.9 114.8 391.8 116.7 390.7 118.6 389.6 120.6 388.4 122.5 388.6 123 388.7 123.3 388.9 124.2 389 124.7 389.1 125.1 389.1 125.5 389.1 126 389.1 126.4 389.1 126.8 389 127.3 388.9 127.6 388.8 128.1 388.7 128.5 388.4 129.3 389.6 131.3 390.6 133.2 390.9 132.8 391.1 132.5 391.4 132.1 391.8 131.9 392.1 131.7 392.6 131.5 393 131.3 393.5 131.2 394 131.1 394.5 131.1 395.1 131.1 395.7 131.1 396.3 131.2 397 131.4 397.7 131.6 398.5 131.7 398.7 131.8 399.1 131.9 399.4 132.1 399.7 132.3 400 132.4 400.2 132.6 400.4 132.8 400.7 133.1 400.9 133.4 401.1 133.7 401.2 134.1 401.4 134.4 401.5 134.8 401.7 135.1 401.8 135.6 401.9 136 403.5 133.6 405.1 131.1 406.6 128.6 408.1 126.2 409.5 123.7 410.9 121.3 412.1 118.9 413.5 116.5 414.6 114 415.7 111.6 416.8 109.2 417.9 106.8 418.7 104.5 419.6 102.2 420.5 99.7 421.3 97.4 422 95.1 422.7 92.8 423.3 90.5 423.8 88.1 424.3 85.8 424.7 83.6 425.1 81.2 425.5 79 425.7 76.8 425.9 74.5 426.1 72.3 426.2 70.1 426.2 67.8 426.2 65.7 426.1 63.5 425.9 61.3"/>
          </g>
        </g>
        <g>
          <path class="cls-11" d="M196.6,173.2c-6.3,1.9-5.9.7-8.8-19.1-19.9-18.1,31.8-22,41.5-25.5,8.3-.6,38.4-3.6,41.3.9,12.9,20,.3,37.8-14.7,59.7-.2.2-33.2-5.2-33.3-5"/>
          <path class="cls-11" d="M400.5,177.7c.9,2.4-2.9,19.8-2.9,20-3.1,13.9-11.8,8.8-13.8,7.1-7.4-6.9,10.2-45.2,16.6-27.1Z"/>
          <path class="cls-11" d="M287.4,83.1c19.5.2,29.2,15,29.2,15,0,0-26.9,16.7-28.8,14.9-7.5-6.8-13-30.1-.4-29.9Z"/>
          <path class="cls-11" d="M421,50c22.3,58.5-34.1,128.6-34.3,128.7-26,9.2-30.6-17.6-24.2-22.4,55.4-42.5,54.3-117.2,58.5-106.3Z"/>
          <path class="cls-11" d="M399.7,27.1c40.7,56.4-22.2,127.8-30.9,130.9-26,9.2-40-23.6-33.2-27.6,69.2-40.8,60.6-108.3,64.2-103.3Z"/>
          <path class="cls-11" d="M386.2,37.2c20.2,48.7-32.5,88.1-41.3,91-12.3,4-30.4-14.6-23.6-18.5,68.9-41.1,62.4-78.2,64.9-72.5Z"/>
        </g>
        <path class="cls-5" d="M554.1,119.6c-.4-8.2-2.1-14.4-4.9-18.7-2.8-4.3-6.6-6.4-11.4-6.4s-10.9,3.1-14.2,9.2c-3.3,6.2-4.9,15-4.9,26.6s1.6,20.3,4.9,26.5c3.3,6.1,8,9.1,14.2,9.1s8-1.8,10.8-5.5c2.8-3.6,4.6-9,5.5-16.1h33.4c-1.5,18.3-6.4,32.2-14.8,41.6-8.4,9.4-20,14-34.8,14s-29.1-5.9-37.5-17.6c-8.5-11.7-12.7-29-12.7-52.1s4.2-40.5,12.7-52.2,21-17.6,37.5-17.6,27.4,5.1,36,15.3c8.5,10.2,13,24.8,13.5,43.9h-33.2Z"/>
        <polygon class="cls-5" points="142.1 196.5 111.6 64 144.9 64 157.8 139.3 171.8 64 235.4 64 170 196.5 142.1 196.5"/>
        <polygon class="cls-5" points="7.4 196.5 7.4 64 47.1 64 58.8 144.7 71.4 64 110.5 64 110.5 196.5 85.7 196.5 85.7 93 69.3 196.5 48.4 196.5 32.2 93 32.2 196.5 7.4 196.5"/>
        <path class="cls-2" d="M254.3,49.5c-.6-4.6-1.7-10-3.4-16.6,2.9,3.4,6,7.3,8.9,11.8,12.9,20,13.5,39.8-1.5,61.8-.2.2-.2.3-.4.4-13.8,13-19.5,7.6-21.8-10.6l-.4-.9c17.3-14.7,21.5-26,18.6-45.9Z"/>
        <path class="cls-5" d="M418.6,163.5h20.5c4.7,0,7.8-.8,9.1-2.3,1.4-1.5,2.1-4.4,2.1-8.4s-.7-7.1-2.1-8.6c-1.4-1.6-4.5-2.4-9.1-2.4h-18.8v-.4c0,0,.5-1.5.5-1.5l.4-1.5.4-1.5.8-3,.4-1.5.4-1.5.7-3.1v-.4c0,0,.2-.4.2-.4l.2-.8.4-1.5.6-3.1.2-.8v-.4c0,0,.4-2,.4-2l.6-3.2.2-1.1h11.4c4.2,0,7-.7,8.2-2.1,1.3-1.3,1.9-3.8,1.9-7.3s-.5-6-1.7-7.3-3.9-2.1-8.3-2.1h-8.8l.2-1.8.2-1.8v-1.8c0,0,.2-1.8.2-1.8v-1.8c0,0,0-1.8,0-1.8v-5.4c0,0-.2-1.8-.2-1.8l-.2-1.8-.2-1.7-.2-1.8-.3-1.7-.3-1.7-.3-1.7-.4-1.7-.3-1.3h22.2c10.5,0,17.8,2.5,22.2,7.7,4.3,5.1,6.5,13.6,6.5,25.4s-.8,12.2-2.5,17.2c-1.7,4.9-4.2,8.8-7.4,11.9,4.3,2.4,7.5,6.4,9.7,12,2.1,5.5,3.3,12.4,3.3,20.6,0,12.6-2.3,22.1-7,28.3s-11.6,9.5-21,9.5h-55.3l-.5-.7-4.4-2.7.5-.6.4-.6.4-.5.4-.6.4-.5.9-1.3,1-1.3.9-1.3.4-.6.4-.6.9-1.3.9-1.3.9-1.3.9-1.3.4-.7.2-.4.2-.4.8-1.4.8-1.4.4-.7.2-.4.2-.4.8-1.5.8-1.5.8-1.5.8-1.6.7-1.6.7-1.6.2-.4.2-.4.4-.8.7-1.7.4-.9.4-.8.4-.9,4.8-8.8.2,7.5v6.2h.2Z"/>
        <path class="cls-10" d="M11.6,220.4h-3.5v-11.7h5.3l4.2,7.3,4.3-7.3h5.2v11.7h-3.5v-8.4l-4.8,8.4h-2.3l-4.8-8.4v8.4h0ZM40.2,220.6c-1.3,0-2.4,0-3-.2s-1.2-.4-1.5-.6c-.4-.4-.8-.8-1-1.3-.2-.5-.3-1.3-.3-2.1v-3.2c0-1,0-1.8.3-2.3s.5-1.1,1-1.3c.4-.3.9-.5,1.6-.6.6,0,1.6-.2,2.9-.2h4.2c1.3,0,2.3,0,3,.2.6,0,1.2.4,1.6.6.4.4.7.8,1,1.3.2.5.3,1.3.3,2.2v3.3c0,.9,0,1.6-.3,2.2-.2.5-.5,1-1,1.3-.4.3-.9.5-1.5.6s-1.6.2-3,.2h-4.3ZM41.1,217.6h2.3c1.3,0,2.1-.2,2.5-.4.4-.4.6-.9.6-1.8v-1.7c0-.9-.2-1.4-.6-1.8s-1.3-.4-2.5-.4h-2.3c-1.3,0-2.1.2-2.5.4-.4.4-.6.9-.6,1.8v1.6c0,.8.2,1.4.6,1.7.4.4,1.3.6,2.5.6h0ZM73.3,220.4h-5.3l-7.1-8.6v8.6h-3.6v-11.7h5.3l7,8.6v-8.6h3.6v11.7h0ZM88.4,220.4h-3.6v-8.8h-4.9v-2.9h13.4v2.9h-4.9v8.8h0ZM103.4,215.7h4.6l-2.3-4.2-2.2,4.2h0ZM100.9,220.4h-3.9l6.4-11.7h4.6l6.3,11.7h-3.9l-1.2-2h-7.2l-1.1,2h0ZM136.5,220.4h-5.3l-7.1-8.6v8.6h-3.6v-11.7h5.3l7,8.6v-8.6h3.6v11.7h0ZM149.1,215.7h4.6l-2.3-4.2-2.2,4.2h0ZM146.6,220.4h-3.9l6.4-11.7h4.6l6.3,11.7h-3.9l-1.2-2h-7.2l-1.1,2h0ZM15.5,236.5l4.6-8.4h3.8l-6.3,11.7h-4.4l-6.3-11.7h3.9l4.5,8.4h0ZM38,239.8h-3.6v-11.7h3.6v11.7h0ZM53.4,232.4h1.5l4.7-4.4h4.7l-6.3,5.8,7.2,6h-5l-5.3-4.5h-1.5v4.5h-3.6v-11.7h3.6v4.3h0ZM79.2,239.8h-3.6v-11.7h3.6v11.7h0ZM106.9,239.8h-5.3l-7.1-8.6v8.6h-3.6v-11.7h5.3l7,8.6v-8.6h3.6v11.7h0ZM129.5,232.3h0c0-.5-.2-1-.4-1.2-.4-.2-1.1-.3-2.2-.3h-2.1c-1.3,0-2.1.2-2.3.4-.4.3-.5.9-.5,1.9v1.6c0,.8.2,1.4.6,1.8.4.4,1.2.4,2.3.4h2.1c1.1,0,1.7,0,2.1-.3.4-.2.6-.5.6-1v-.4h-4.2v-2.4h8v3.8c0,1.1-.4,1.9-1.3,2.3s-2.2.7-4.3.7h-4c-1.3,0-2.1,0-2.7-.2-.6,0-1.1-.4-1.5-.7s-.8-.8-1.1-1.3c-.2-.5-.4-1.3-.4-2.1v-3.2c0-1.7.4-2.9,1.2-3.5.8-.6,2.2-1,4.4-1h4c1.3,0,2.2,0,2.9.2s1.1.3,1.4.6c.4.3.6.6.8,1.2.2.4.3,1.1.3,1.8v.6h-3.7ZM144.4,235.9h3.6v.2c0,.4,0,.7.4.9.2.2.6.3,1.3.3h4.5c.4,0,.8,0,1-.3.2-.2.3-.4.3-.7s0-.6-.4-.8c-.2-.2-.7-.3-1.4-.3h-5.6c-1.4,0-2.3-.4-2.9-.9-.5-.5-.7-1.4-.7-2.7s0-1.3.2-1.7c0-.4.4-.8.6-1.1.4-.4.8-.5,1.3-.7.5-.2,1.4-.2,2.7-.2h5.5c1.3,0,2.3.3,2.9.7.6.5.9,1.3.9,2.4v.7h-3.5c0-.4,0-.8-.3-1s-.5-.3-.9-.3h-4.1c-.7,0-1.2,0-1.3.2-.2.2-.4.4-.4.7s0,.5.3.7c.2.2.5.3,1.1.3h5.9c1.3,0,2.3.4,2.9,1,.5.5.8,1.5.8,2.9s0,1.4-.3,1.9-.5.8-1,1.2c-.4.2-.7.4-1.3.4-.5,0-1.3,0-2.3,0h-4.8c-2,0-3.3-.2-3.9-.6s-1-1.3-1-2.4v-1Z"/>
        <path class="cls-10" d="M410.8,217.7c.4,0,.5,0,.7-.3.2-.2.3-.4.3-.8s0-.5-.3-.7c-.2-.2-.4-.3-.7-.3h-6.6v2.1h6.6ZM410.4,213.3c.3,0,.5,0,.7-.3.2-.2.3-.4.3-.7s0-.5-.3-.7c-.2-.2-.4-.3-.6-.3h-6.3v2h6.3ZM411.7,220.4h-11.2v-11.7h10.6c1.3,0,2.3.3,2.9.8.6.5,1,1.3,1,2.5s-.2,1.2-.4,1.5c-.3.4-.7.7-1.3,1,.7,0,1.3.4,1.6.9s.5,1.1.5,2-.3,1.9-.9,2.4c-.6.4-1.5.6-2.9.6h0ZM426.3,215.7h4.6l-2.3-4.2-2.2,4.2h0ZM423.8,220.4h-3.9l6.4-11.7h4.6l6.3,11.7h-3.9l-1.2-2h-7.2l-1.1,2h0ZM441.5,216.5h3.6v.2c0,.4,0,.7.4.9.2.2.6.3,1.3.3h4.5c.4,0,.8,0,1-.3s.3-.4.3-.7,0-.6-.4-.8c-.2-.2-.7-.3-1.4-.3h-5.6c-1.4,0-2.3-.4-2.9-.9-.5-.5-.7-1.4-.7-2.7s0-1.3.2-1.7.4-.8.6-1.1c.4-.4.8-.5,1.3-.7s1.4-.2,2.7-.2h5.5c1.3,0,2.3.3,2.9.7.6.5.9,1.3.9,2.4v.7h-3.5c0-.4,0-.8-.3-1-.2-.2-.5-.3-.9-.3h-4.1c-.7,0-1.2,0-1.3.2s-.4.4-.4.7,0,.5.3.7c.2.2.5.3,1.1.3h5.9c1.3,0,2.3.4,2.9,1s.8,1.5.8,2.9,0,1.4-.3,1.9c-.2.4-.5.8-1,1.2-.4.2-.7.4-1.3.4s-1.3,0-2.3,0h-4.8c-2,0-3.3-.2-3.9-.6-.6-.4-1-1.3-1-2.4v-.4c0-.2,0-.4,0-.6h0ZM465.2,213.1h1.5l4.7-4.4h4.7l-6.3,5.8,7.2,6h-5l-5.3-4.5h-1.5v4.5h-3.6v-11.8h3.6v4.4h0ZM494.5,211.6h-9.3v1.8h8.8v2.5h-8.8v1.8h9.4v2.9h-13v-11.8h12.9v2.9h0ZM507.9,220.4h-3.6v-8.8h-4.9v-2.9h13.4v2.9h-4.9v8.8h0ZM528.1,217.7c.4,0,.5,0,.7-.3s.3-.4.3-.8,0-.5-.3-.7-.4-.3-.7-.3h-6.6v2.1h6.6ZM527.7,213.3c.3,0,.5,0,.7-.3s.3-.4.3-.7,0-.5-.3-.7-.4-.3-.6-.3h-6.3v2h6.3ZM529,220.4h-11.2v-11.7h10.5c1.3,0,2.3.3,2.9.8.6.5,1,1.3,1,2.5s-.2,1.2-.4,1.5c-.3.4-.7.7-1.3,1,.7,0,1.3.4,1.6.9.4.4.5,1.1.5,2s-.3,1.9-.9,2.4c-.4.4-1.4.6-2.8.6h0ZM543.6,215.7h4.6l-2.3-4.2-2.2,4.2h0ZM541.1,220.4h-3.9l6.4-11.7h4.6l6.3,11.7h-3.9l-1.2-2h-7.2l-1.1,2h0ZM563,217.6h7.9v2.9h-11.4v-11.7h3.6v8.8h0ZM579.5,217.6h7.9v2.9h-11.4v-11.7h3.6v8.8h0ZM411.8,232.3h0c0-.5-.2-.9-.4-1.1s-.8-.4-1.4-.4h-2.9c-1.3,0-2.1.2-2.4.4-.4.3-.5.9-.5,1.9v1.6c0,.8.2,1.4.6,1.8.4.4,1.2.4,2.3.4h2.1c1.2,0,1.9,0,2.2-.4s.5-.6.5-1.3h0c0,0,3.7,0,3.7,0h0v.9c0,.7,0,1.3-.3,1.9-.2.4-.4.9-.9,1.2-.4.3-.9.4-1.5.6-.6,0-1.6.2-2.8.2h-4c-1.3,0-2.1,0-2.7-.2s-1.1-.4-1.5-.7-.8-.8-1.1-1.3c-.2-.5-.4-1.3-.4-2.1v-3.2c0-1.7.4-2.9,1.2-3.5.8-.6,2.2-1,4.4-1h4c1.3,0,2.2,0,2.9.2s1.1.3,1.4.6c.4.3.6.6.8,1.2.2.4.3,1.1.3,1.8v.6h-3.6v-.2ZM424.8,236.9h7.9v2.9h-11.4v-11.7h3.6v8.8h0ZM437.5,228h3.6v7c0,.8.2,1.3.5,1.6s1.2.4,2.3.4h2.1c1,0,1.7-.2,2.1-.4s.5-.8.5-1.6v-7h3.6v8c0,1.3-.4,2.3-1.2,2.9-.7.5-2.1.9-3.8.9h-4c-2.1,0-3.7-.3-4.5-.8s-1.3-1.5-1.3-2.9v-8.1h0ZM468.2,237.1c.4,0,.5,0,.7-.3.2-.2.3-.4.3-.8s0-.5-.3-.7c-.2-.2-.4-.3-.7-.3h-6.6v2.1h6.6ZM467.9,232.6c.3,0,.5,0,.7-.3.2-.2.3-.4.3-.7s0-.5-.3-.7c-.2-.2-.4-.3-.6-.3h-6.3v2h6.3ZM469.2,239.8h-11.2v-11.7h10.5c1.3,0,2.3.3,2.9.8s1,1.3,1,2.5-.2,1.2-.4,1.5c-.3.4-.7.7-1.3,1,.7,0,1.3.4,1.6.9.4.4.5,1.1.5,2s-.3,1.9-.9,2.4c-.5.4-1.4.6-2.8.6Z"/>
        <path class="cls-7" d="M524.7,234.5h-5.5v1.1h5.2v1.4h-5.2v1.1h5.5v1.7h-7.7v-7h7.6v1.7h0ZM526,238.3h1.9c0,.2,0,.3.3.4s.4,0,.7,0h1.3c.3,0,.4,0,.5,0s.2-.2.2-.3,0-.2-.2-.3c0,0-.3,0-.5,0h-1.8c-.9,0-1.5,0-1.9-.4-.4-.3-.5-.6-.5-1.2s.2-1,.5-1.3c.4-.3,1-.4,1.9-.4h2.1c.6,0,1.2,0,1.4.4s.4.6.4,1.1h-1.8c0,0-.2-.2-.3-.2-.2,0-.4,0-.6,0h-1.3c-.3,0-.4,0-.5,0s-.2,0-.2.3,0,.2.2.3c0,0,.4,0,.7,0h2.1c.6,0,1.1.2,1.4.4.3.3.4.6.4,1.2s-.2,1.1-.4,1.3c-.4.3-.9.4-1.7.4h-1.8c-1,0-1.7,0-2.1-.4-.4-.3-.5-.6-.5-1.3h0ZM534.5,236.2h-1v-1.3h1v-1.3h1.8v1.2h2.8v1.3h-2.8v1.7c0,.3,0,.4.2.5,0,0,.3.2.5.2s.4,0,.6-.2c0,0,.2-.3.2-.5v-.3h1.6v.4c0,.6-.2,1.2-.6,1.4-.4.3-1,.4-1.9.4s-1.4,0-1.8-.4-.5-.7-.5-1.3v-2h0ZM543.3,239.8h-2v-2h2v2h0ZM556.3,239.8h-2.1v-5.2l-2.3,1.6-1-1.4,3-1.9h2.3v6.9h0ZM565,234.4h-2c-.4,0-.5,0-.7.2s-.3.3-.3.5,0,.4.2.5c.2,0,.4.2.7.2h2c.4,0,.5,0,.7-.2s.2-.3.2-.5,0-.4-.2-.5c0,0-.3-.2-.6-.2h0ZM567.9,235v2.8c0,.8-.3,1.4-.7,1.7-.5.4-1.4.4-2.8.4h-2c-.9,0-1.5-.2-2-.4s-.6-.7-.6-1.3v-.4h1.9c0,.2,0,.4.3.4s.4.2.7.2h2c.4,0,.7,0,.8-.2.2,0,.3-.4.3-.6v-.8c-.2.2-.4.4-.6.4s-.6,0-1.1,0h-1.5c-1,0-1.7,0-2.1-.4-.4-.3-.6-.6-.6-1.2v-1.3c0-.5.2-.9.5-1.2.4-.3.9-.4,1.6-.4h3.1c.9,0,1.6.2,2.1.5.4.3.7.9.7,1.6h0ZM574.6,234.4h-2c-.4,0-.5,0-.7.2s-.3.3-.3.5,0,.4.2.5c.2,0,.4.2.7.2h2c.4,0,.5,0,.7-.2s.2-.3.2-.5,0-.4-.2-.5c0,0-.3-.2-.6-.2h0ZM577.6,235v2.8c0,.8-.3,1.4-.7,1.7-.5.4-1.4.4-2.8.4h-2c-.9,0-1.5-.2-2-.4s-.6-.7-.6-1.3v-.4h1.9c0,.2,0,.4.3.4s.4.2.7.2h2c.4,0,.7,0,.8-.2.2,0,.3-.4.3-.6v-.8c-.2.2-.4.4-.6.4s-.6,0-1.1,0h-1.5c-1,0-1.7,0-2.1-.4-.4-.3-.6-.6-.6-1.2v-1.3c0-.5.2-.9.5-1.2.4-.3.9-.4,1.6-.4h3.1c.9,0,1.6.2,2.1.5.4.3.7.9.7,1.6h0ZM579.3,237.7h2c0,.3,0,.4.3.5s.4,0,.9,0h2.1c.4,0,.5,0,.7-.2,0,0,.2-.3.2-.5v-.3c0-.2,0-.4-.3-.4s-.4,0-.8,0h-2.3c-.2,0-.4,0-.4,0s-.2.2-.2.3h-1.8v-4.3h7.5v1.6h-5.7v1.2c.2-.2.4-.3.6-.4s.6,0,1.1,0h1.9c.8,0,1.4.2,1.8.4s.5.7.5,1.3v1.2c0,.7-.2,1.2-.6,1.4-.4.3-1.2.4-2.1.4h-2.5c-1.1,0-1.9-.2-2.2-.4-.4-.3-.6-.8-.6-1.4v-.2q0,0,0-.2Z"/>
        <path class="cls-2" d="M254.3,49.5c-.6-4.6-1.7-10-3.4-16.6,2.9,3.4,6,7.3,8.9,11.8,12.9,20,13.5,39.8-1.5,61.8-.2.2-.2.3-.4.4-13.8,13-19.5,7.6-21.8-10.6l-.4-.9c17.3-14.7,21.5-26,18.6-45.9Z"/>
        <path class="cls-6" d="M254,61v1c0,0,0,.2,0,.2v1.5c0,0-.2.8-.2.8v.9c0,0-.3.8-.3.8v.4c0,0,0,.2,0,.2v.2l-.2.8-.2.8-.2.8-.2.8v.4c0,0-.2.4-.2.4l-.2.8-.2.4v.4c0,0-.4.7-.4.7l-.3.7-.2.4v.4c0,0-.4.7-.4.7l-.3.7-.4.7-.4.7-.4.6-.4.6-.4.6-.4.6v.2c0,0-.2.2-.2.2l-.2.3-.4.6-.4.5v.2c0,0-.2.2-.2.2l-.2.3-.4.5-.3.3v.2c0,0-.2.2-.2.2l-.4.5-.3.3-.3.3-10.3,10.6v1c0,0,.2,1,.2,1v.9c0,0,.3.9.3.9l.2.9.2.9.2.8.2.8.2.8.2.8.4,1.4.2.7.2.6.2.6.3.6.3.5.3.5.5,1.1.3.4.3.4.3.4.3.4.3.4.4.4.4.4.4.4.4.3.4.3.4.3.4.2.4.2.4.2.4.2h.4c0,0,.4.2.4.2h.4c0,0,.4,0,.4,0h1.8c0,0,.4-.2.4-.2h.4c0,0,.4-.3.4-.3l.4-.2.5-.2.5-.2.5-.3.5-.3.5-.3.5-.4.5-.4.5-.4.6-.4.5-.4.6-.4.6-.4.6-.4.6-.5.6-.5.6-.5.6-.5h0l.2-.2h0c0,0,0-.2,0-.2l.2-.4v-.2c0,0,.3-.2.3-.2l.4-.5.2-.3.2-.3.4-.7.2-.4.3-.4.2-.4.3-.4.3-.4.3-.4.3-.4.3-.5.3-.5.4-.5.6-1.2.7-1.3.4-.7.4-.7.7-1.4.6-1.4.6-1.4.5-1.4.5-1.4.4-1.4.4-1.4.4-1.4.4-1.4.2-.7.2-.7.3-1.4.2-1.4.2-1.4v-1.4c0,0,.2-1.4.2-1.4v-4.3c0,0-.3-1.4-.3-1.4l-.2-1.4-.2-1.4-.3-1.4-.2-.7-.2-.7-.2-.7v-.4c0,0-.2-.4-.2-.4l-.4-1.4-.4-1.4-.5-1.4-.5-1.5-.6-1.4-.6-1.4-.7-1.4-1-1.9-.5-.9-.5-.9-1.2-1.9-.5-.9-.6-.9-1.3-1.9-.4-.4-.2-.3h0c0,0,0-.2,0-.2l-.6-.9-.7-1-.7-.9-1.4-1.8-1.5-1.8-1.6-1.8-1.7-1.8-1.7-1.8v.4c0,0,.2.4.2.4l.3.8.2.8.3.8v.4c0,0,.2.4.2.4l.2.8.2.7.2.7v.4c0,0,0,.2,0,.2h0v.2l.2.7.2.7.2.7.2.6v.4c0,0,.2.4.2.4v.3c0,0,.2.4.2.4l.2.6.3,1.4v.7c0,0,.3.7.3.7l.3,1.3v.6c0,0,.2.7.2.7v.6c0,0,.2.6.2.6l.2,1.3.2,1.3.2,1.3v1.2c0,0,0,.6,0,.6v.6c0,0,.2,1.2.2,1.2v1.2c0,0,0,1.2,0,1.2v2.2h0v.5-.4h0ZM235.7,95.5c21.7-18.4,22.7-31.6,15.3-62.6,20.9,24.2,25.3,47.3,7.4,73.6-.2.2-.2.3-.4.4-13.8,13-19.5,7.6-21.8-10.6l-.4-.8Z"/>
        <path class="cls-2" d="M185.3,109.5c-21.5-3.2-35.4-15.2-48-32.2,7,24.7,18.9,51.1,47.7,56.6-2.5-6.7-3.3-14.3.3-24.4Z"/>
        <path class="cls-3" d="M317.7,199.3c8.9,9.8,21.2,19.8,36.9,30.6,21.1-10.1,36.5-30.3,39.8-54.3-39.3,53.5-55.4,9-76.7,23.8h0ZM349.3,232.1c-7.8,2.9-16.3,4.6-25.1,4.6s-11.7-.7-17.3-2.1c5.6-16.9-5.3-20.6,7-32.1,8.8,9.7,20.6,19.3,35.4,29.7h0ZM311.2,199.5c-1.3-1.6-2.7-3.1-3.8-4.7-14.5,5-30.9,5.5-49.2-3.3,7.7,19.9,24.1,35.4,44.6,41.9,5.4-7.2-5.7-20.6,8.5-33.9h0ZM303.9,189.8c-14.3,4.6-29.5,3.8-47.9-4.8-1.7-6.2-2.7-12.6-2.7-19.3s.4-9.7,1.4-14.2c22.8-6.5,22.5,30.5,43.1,27,1.6,3.9,3.6,7.7,6.1,11.4h0ZM296.3,174.4c-7.2-22.3.3-46.7,22.5-79.4-30,2.2-54.9,23.3-62.8,51.4,21.5-5.4,24,27.6,40.3,28h0ZM385.4,130c1.2,2,2.2,4,3.1,6.1h0l-.7.4-.7.4-.6.5-.5.5-.3.3-.2.4-.2.4-.2.4-.4.8-.3.8-.2.9v.4c0,0-.2.4-.2.4v.4c0,0,0,.5,0,.5v3.4c0,0,.3,1.3.3,1.3l-.9.7-.9.7-.8.8-.8.8-.8.8-.7.9-.7.9-.6,1-.6,1-.5,1-.5,1.1-.4,1.1-.4,1.1-.4,1.2-.4,1.2-.4,1.3-.2.6-.2.6v.6c0,0-.2.6-.2.6v.6c0,0,0,.6,0,.6v1.1c0,0,.2.5.2.5v.5c0,0,.2.4.2.4l.2.4.2.4.2.4.3.4.3.4.3.4.4.4.4.4.4.4.4.3.4.3.4.3.5.3.5.2.5.2.6.2.6.2.6.2.7.2h.7c0,0,.8.2.8.2l3.4-2.1h0c0,0,0,.2,0,.2h.3c0,0,.2-.2.2-.2h.2c0,0,.2-.2.2-.2l.2-.2.2-.2.2-.2.3-.2.3-.3.3-.3.3-.4.3-.4.5-.7.4-.7.4-.7.4-.6.3-.6.3-.6.2-.6v-.5c0,0,.2-.5.2-.5v-.4c0,0,.2-.4.2-.4v-.3c0,0,.2-.3.2-.3v-.2c0,0,.2-.2.2-.2h.4-.4c0,0,0-.4,0-.4v-.3c0,0,.2-.4.2-.4v-.3c0,0,.2-.2.2-.2h0c0,0,.2-.3.2-.3l.2-.2.2-.3.3-.3.3-.4.4-.4.2-.2c0,1.5.2,3,.2,4.6v1.9c-45.7,62.8-49.4,7.1-79.9,28.8-1-1.2-2-2.3-2.9-3.5,21.5-9.1,38.3-27.4,49.7-38.7h.2c0,0,.4.3.4.3l.7.2h.4c0,0,.4.2.4.2h3.8c0,0,.3-.2.3-.2h.4c0,0,.3-.2.3-.2h.3c0,0,.3-.2.3-.2h.3c0,0,.3-.3.3-.3l.3-.2.3-.2.3-.2h0c0,0,0-.2,0-.2l.2-.2.2-.2h0c0,0,0-.2,0-.2h0c0,0,0-.2,0-.2l.2-.2h0c0,0,0-.2,0-.2l.2-.2v-.3c0,0,.2-.3.2-.3v-.3c0,0,.2-.2.2-.2h0c0,0,0-.4,0-.4v-.3c0,0,.2-.3.2-.3v-.3c0,0,.2.4.2.4l.2.4v.4c0,0,.2.4.2.4l.7-.8.6-.7.6-.7.5-.7.4-.7.4-.7.4-.7.4-.7.3-.7.3-.7.2-.7.2-.7v-.7c0,0,.2-.7.2-.7v-1.3l.6-.7.6-.7.6-.7.6-.6.5-.7.5-.6.5-.6.4-.6.4-.7.4-.6.4-.6.4-.6.4-.6.3-.6v-.6h0ZM363.7,106.8c1.3.9,2.7,1.9,4,2.9h0v.6c0,0,.3.4.3.4l.2.5.3.6.4.6.4.7.3.4.3.4-.4.4-.4.4-.4.4-.3.5-.3.5-.3.5-.2.5-.2.5-.2.5-.2.6-.2.6v.6c0,0-.2.6-.2.6v.7c0,0,0,.7,0,.7v.7l-.4.3-.4.4-.8.7-.8.8-.7.9-.7.9-.6,1-.6,1.1-.6,1.2-.5,1.2-.5,1.3-.3.6-.2.7-.4,1.4-.2.7-.2.7-.4,1.5-.4,1.6-.3,1.7v1c0,0,0,.9,0,.9v1.8c0,0,.2.8.2.8v.8c0,0,.2.7.2.7l.2.7.2.6.2.6.2.5.2.4c-18.2,16.9-33.7,30.4-49.9,37.1-2.4-3.7-4.3-7.2-5.8-10.9,18.2-7.7-.4-30.2,31.4-51.4h0l.7.3.7.2.7.2.7.2h.7c0,0,.8.2.8.2h.8c0,0,.8,0,.8,0h.8c0,0,.8-.2.8-.2h.8c0,0,.9-.2.9-.2h.2c0,0,0-.2,0-.2h.2c0,0,.2-.2.2-.2l.2-.2.3-.2.3-.2.4-.2.4-.3.4-.3.4-.3.4-.3.4-.4.5-.4.6-.4.5-.4.6-.4.6-.5.6-.6.6-.7.7-.7.7-.8.7-.8.7-.9.8-1,.8-1.1.8-1.1.8-1.2.8-1.3.8-1.3.9-1.3h.3c0,0,.3-.2.3-.2h.3c0,0,.3-.2.3-.2l.3-.2.3-.2.3-.2.3-.2.2-.2.2-.2.2-.3.2-.3.2-.3.4.2h0ZM329.5,122.2l-.3-.4-.2-.3-.2-.3-.4-.5-.2-.3v-.3c0,0-.4-.6-.4-.6l-.2-.6-.2-.6v-.6c0,0-.2-.4-.2-.4v-2.5c0,0,0-.6,0-.6v-1.8c0,0,.2-.6.2-.6v-.5c0,0,.4-1.2.4-1.2l.4-1.2.3-.6.4-.5.4-.6.4-.5.4-.5.4-.5.9-1.2.5-.5.5-.5,1.2-1.2.6-.5.7-.5.7-.5.8-.5,1.6-1.2,1.7-1.2.9-.5h.2c-5.1-1.3-10.4-2.1-15.8-2.1-22.3,32.4-30.8,56.3-23.6,78.6,12.4-5.8-2.1-32.3,27.9-51.4Z"/>
        <path class="cls-4" d="M242.2,189.8l-.2-.2-.2-.2-.4-.4-.3-.2-.3-.2-.4-.2-.4-.2-.6,1.1-.5,1.1-.4,1.1-.4,1.2-.3,1.2-.2,1.2-.2,1.3v1.3c0,0,0,.6,0,.6v1.8c0,0,.2.5.2.5v.5c0,0,.2.5.2.5l.2.5.2.4.2.4.2.4.3.4.3.4.3.4.3.4.4.4.3-.4.4-.4.4-.4.4-.4.4-.4.5-.4.6-.4.7-.4.5-.3.6-.3.6-.2h.6c0,0,0,.4,0,.4v2.2c0,0,.2.4.2.4v.4c0,0,.2.4.2.4l.2.4.2.4.2.4.2.4.3.4.3.4.3.4.8.8.8.8.8.8.8.8.8.7.8.7.8.6.8.6v-.4c0,0,.2-.4.2-.4v-.4c0,0,.2-.4.2-.4v-1.1l.5.6.5.6.5.7.6.7.6.7.6.8.6.8.6.9.4.4.4.4.2.2.2.2.4.3h.2c0,0,0,0,0,0h0l.3.2h.3c0,0,.2,0,.2,0h.4c0,0,0,0,0,0h.4c0,0,0-.2,0-.2l.3-.2v-.2c0,0,.2,0,.2,0l.2-.3h0v-.2h0v-.2c0,0,.2-.2.2-.2v-.2c0,0,.7.6.7.6l.6.6.7.6.4.3.4.3.8.5.8.5.9.5.4.3.4.3.6.3.6.3.6.3.6.3.6.2h.3c0,0,0,0,0,0h.3c0,0,.6.3.6.3l.6.2-.4-.8-.4-.7-.4-.7-.4-.7-.4-.7-.4-.6-.4-.6-.4-.5-.6-.7-.6-.6-.6-.6-.6-.5-.7-.4-.4-.3-.4-.2-.7-.4-.7-.4-1.4-.2-1-.5-1-.6-1-.6-1-.6-1-.7-.9-.7-.9-.8-1.1-1-1-1-1-1-.4-.5-.4-.4-.4-.5-.4-.5-.8-1-.7-1.1-.4-.5-.3-.5.4.4.4.4.4.4.4.4.8.7.4.4.4.4.4.3.4.3.4.3.4.3.9.4.4.2.5.2.6.2h.4c0,0,.4,0,.4,0h1.7l-.8-.7-.4-.4-.4-.4-.4-.4-.3-.4-.3-.4-.3-.4-.4-.8-.4-.8-.4-.9-.2-.4v-.4c0,0-.2-.2-.2-.2v-.2c0,0-.2-.2-.2-.2v-.2c0,0-.3-.3-.3-.3l-.2-.2-.2-.2h0c0,0,0-.2,0-.2h-.2c0,0-.2,0-.2,0h-.4c0,0,0,0,0,0h0c0,0,0,.2,0,.2h0c0,0-.3.3-.3.3l-.3.3-.2.2v.2c0,0-.3.2-.3.2v.2c0,0-.2-.8-.2-.8v-.8c0,0-.2-.9-.2-.9v-6.7c0,0-.2-.5-.2-.5v-.4c0,0-.3-.4-.3-.4l-.2-.4-.2.3-.3.3-.3.3-.3.3-.4.3-.4.3-.4.3h-.2c0,0,0,.2,0,.2l-.3.2h-.3c0,0-.2,0-.2,0h-1.8.3-.4l.2.4h0c0,0,0,.2,0,.2v.2c0,0,.3.4.3.4h0v.4c0,0,.3.2.3.2l.2.2.2.2h0c0,0,0,0,0,0h-.4c0,0-.4.2-.4.2h-1.8c0,0-.4-.2-.4-.2h-.4c0,0-.4-.3-.4-.3l-.4-.2-.4-.2-.4-.2-.4-.3-.4-.3-.4-.3-.4-1.3h0ZM228.1,210.6h-.2c0,0-.2,0-.2,0h-.5c0,0-.2-.2-.2-.2v-.2c0,0-.2-.2-.2-.2v-.2c0,0-.2-.3-.2-.3v-.3c0,0-.2-.3-.2-.3v-.4c0,0,0-.4,0-.4v-2.1c0,0,.2-.6.2-.6v-.5c0,0,.2-.6.2-.6l.2-.5.2-.5.2-.5.2-.5.3-.4.3-.4.4-.4.3-.4.4-.4.4-.4.4-.4.5-.4.3-.2.3-.2.2-.2h.3c0,0,.2-.2.2-.2h.2c0,0,.2-.2.2-.2h.9c0,0,.2.2.2.2h.2c0,0,0,.2,0,.2l.2.2v.2c0,0,.2.2.2.2v.2c0,0,.2.3.2.3v.3c0,0,.2.3.2.3v.3c0,0,.2.4.2.4v.4c0,0,.2.4.2.4v2.9c0,0,.2,1.3.2,1.3l.2,1.3.3,1.3.3,1.2.2.5.2.6.2.5.2.5.4,1.2.2-.4.2-.4.3-.4.3-.4.2-.4v-.2c0,0,.2,0,.2,0l.2-.2h0c0,0,0,0,0,0h.2l.2.2.2.2v.2c0,0,.2.2.2.2l.5,1.1.6,1,.6.9.4.4.4.4.7.8.8.7.8.6.4.3.4.3v-2.2c0,0,.3-1.1.3-1.1l.2-1,.3-1,.3-.9.4-.9.4-.8.4.4.4.4.4.4.4.5.7,1,.4.4.4.5.3.5.4.5.3.5.3.5.3.5.3.6.4,1.2.2.6.2.6.4,1.3.2-.2.2-.2.2-.2h.2c0,0,.2-.2.2-.2h.3c0,0,.3-.2.3-.2h.3c0,0,.3-.2.3-.2h1.5c0,0,.4.2.4.2h.4c0,0,.5.3.5.3l.5.2,1.1.4.5.2.5.3,1.1.5,1.1.5.5.3.5.3,1,.6,1,.7h0v-.4h0v-.4h0c0,0,0,0,0,0v-.6c0,0,0-.2,0-.2v-.2l1.3.7.6.4.7.4.7.4.7.4,1.4,1.1.3.2.3.2.2.2.3.2.2.2.2.2h.2c0,0,.2.3.2.3h.4c0,0,.2.2.2.2h.2c0,0,0,0,0,0h.6v-.2h0v-.2h0v-.2h0v-.6c0,0,0-.2,0-.2v-.2c0,0,0,0,0,0h0c0,0,.4.2.4.2l.4.2.4.2.5.2.6.2.6.3.5.3.5.4.5.4.3.2.3.3.2.3.3.3.2.3.3.3h0c0,0,0,.2,0,.2l.2.2.3.4v.2c0,0,.3.2.3.2l.3.3h0c0,0,0,.2,0,.2l.3.2h0c0,0,0,.2,0,.2h.3c0,0,0,0,0,0h.6c0,0,.2-.3.2-.3h0c0,0,0,0,0,0h0c0,0,0-.2,0-.2h0c0,0,.2-.4.2-.4l.2-.4.2-.4v-.4c0,0,.2-.4.2-.4v-.4c0,0,0-.4,0-.4v-.7l.3.3.4.3.4.3.4.4.4.3.5.4.5.4.6.4,1.2.6,1.2.6,1.2.6,1.2.7,2.2,1.3,2.2,1.4-.6.6-.6.6-.6.5-.5.5-.4.4-.3.2-.5.4-.4.3-.4.3-.5.3h-.2c0,0,0,.2,0,.2l-.3.2-.5.2-.5.2-.5.2-.5.2-.5.2h-.5c0,0-.3,0-.3,0h-.9c0,0-.3,0-.3,0h-4.1c0,0-.8-.2-.8-.2h-.8c0,0-.8-.2-.8-.2l-.8-.2-1.5-.4-1.5-.4-.7-.3-.7-.3-.7-.3-.7-.3-.8-.4-.8-.4-1.6-.8-.8-.4-.7-.4-.7-.4-.7-.4-1.4-1-1.3-1-.7-.5-.6-.5-.6-.5-.6-.5-.3-.3-.3-.2-.4-.4-.4-.3h-.2c0,0-.2-.2-.2-.2h-.2c0,0-.2-.2-.2-.2h-.2c0,0,0,0,0,0h-.4c0,0,0,.2,0,.2h0c0,0,0,.2,0,.2v.4c0,0,0,.2,0,.2v1.3c0,0,.2.6.2.6v.4c0,0,.2.4.2.4l-.8-.2-.8-.3-.7-.3-.7-.3-.7-.4-.7-.4-.7-.4-.6-.4-.6-.4-.6-.4-.6-.4-.5-.4-.5-.4-.5-.4-.5-.4-.4-.5-.4-.5-.4-.5-.4-.5-.4-.5-.4-.5-.4-.4-.4-.4-.4-.4-.4-.3-.4-.2-.4-.2h-.3c0,0-.3,0-.3,0h-.3c0,0-.3.3-.3.3l-.2.3-.2.3-.2.4-.2.4-.2.5-.6-.3-.6-.4-.6-.4-.5-.4-.5-.4-.5-.4-.5-.4-.5-.4-.4-.4-.4-.4-.7-.9-.4-.4-.3-.4-.3-.4-.3-.4-.3-.5-.3-.4-.4-1-.4-1.1-.2-.5-.2-.5-.2-.4v-.2c0,0-.2-.2-.2-.2l-.2-.4-.2-.3-.2-.3-.2-.2-.3-.2-.3-.2-.3-.2h-.3c0,0-.3-.2-.3-.2h-1c0,0-.4.2-.4.2l-.6-.3h0ZM201.6,182.2v2.9c0,0-.2.7-.2.7v.7c0,0-.3.7-.3.7l-.2.7-.4,1.6-.4,1.6-.4,1.6-.4,1.6-.5,1.5-.5,1.5-.6,1.5-.3.8-.3.8.5-.2.6-.2.5-.2h.2c0,0,.2,0,.2,0h.3c0,0,.3-.2.3-.2h.2c0,0,.2,0,.2,0l.5-.2h.3c0,0,.2-.2.2-.2h.2l.5-.2.5,4.8.6,4.9,1.3,10.8.2,1.2.2,1.2.2,1.2.3,1.2.3,1.1.3,1.2.4,1.1.4,1.1h.2c0,0,.2-.2.2-.2h0c0,0,0-.2,0-.2h0c0,0,0-.2,0-.2l.2-.2h0c0,0,0-.2,0-.2v-.2c0,0,.2-.2.2-.2l.4-.7.4-.6.4-.5.4-.4.4-.4.4-.3.4-.2h.4c0,0,.4,0,.4,0h.4c0,0,.4.3.4.3l.4.2.4.3.4.4.5.4.5.5,1.6,1.9,1.7,1.9,1.6,1.9,1.7,2,.3.3.3.3.3.3.3.3.2.2.3.2.2.2h0c0,0,0,0,0,0h0c0,0,.2.2.2.2h.2c0,0,.2.2.2.2h1c0,0,.2-.2.2-.2h0c0,0,0-.2,0-.2h.2c0,0,0-.3,0-.3v-.2c0,0,0,0,0,0h0c0,0,0-.3,0-.3v-.3c0,0,0-.2,0-.2h0v-.2h0v-.6c0,0,0-.4,0-.4v-.4c0,0,0-.4,0-.4v-.4c0,0,.6.6.6.6l.5.6.5.5.6.5.6.4.7.4.7.4.7.4v-1.7l1.3.4,1.3.4,1.3.4,1.3.4,1.2.4.5.2.5.2h.5c0,0,.5.2.5.2h.5c0,0,.3,0,.3,0h.9c0,0,0,0,0,0h3.6c0,0-.5-.4-.5-.4l-.5-.3-.6-.2-.7-.2-1.5-.4-1.4-.5-.7-.3-.7-.3-1.3-.6-.7-.4-.6-.4-.6-.4-.6-.4-.6-.4-.6-.4-.6-.4-.5-.4v.3c0,0-.2.3-.2.3v.3c0,0-.2.2-.2.2h0v.2l-.2.3h0c0,0,0,.3,0,.3h0v.2l-.2.2h0c0,0,0,0,0,0h0c0,0-.2-.3-.2-.3l-.4-.3-.4-.3-.4-.3-.4-.4-.4-.3-.5-.4-.5-.3-.4-.3-.4-.3-.4-.3-.4-.3-.4-.3-.4-.3-.6-.6-.6-.6-.5-.6-.4-.7-.3-.4-.2-.4-.4-.5-.4-.5-.4-.4-.4-.4-.4-.3-.4-.2h-.4c0,0-.3,0-.3,0h-.6c0,0-.3.3-.3.3l-.3.3-.3.4-.3.4-.3.4-.3.5-.4-.6-.4-.6-.4-.6-.4-.6-.7-1.4-.4-.7-.4-.7-.9-2.1-.9-2-.8-2-.8-1.9-.2.2-.2.2-.3.2-.3.2h-.2c0,0-.2.2-.2.2l-.4.2-.4.2-.4.2-.2-.5-.2-.4-.2-.5-.2-.5-.2-.5v-.5c0,0-.3-1.2-.3-1.2v-.6c0,0-.2-.6-.2-.6v-.6c0,0,0-.6,0-.6v-2.9c0,0,.2-1.4.2-1.4l.2-1.3.2-1.3.3-1.3.2-.8v-.4c0,0,.2-.4.2-.4v-1.7c0,0,0-.3,0-.3v-.5c0,0-.3-.4-.3-.4v-.2c0,0-.2-.2-.2-.2l-.3-.4-.2-.2-.2-.2-.4-.3-.4-.2-.5-.2h-.5c0,0-.4,0-.4,0h-1.3l.6-.8.7-.9.7-1,.7-1,.2-.3.2-.3.2-.3.2-.3.4-.5.2-.3.2-.3.3-.6.2-.3.2-.3.3-.6.3-.6.3-.6.3-.6.3-.6.3-.6.2-.7.2-.7.2-.7.2-.7.3.3.3.3.3.2.4.2.4.2h.4c0,0,.4.2.4.2h.4c0,0-.4,2.6-.4,2.6l-.3,2.5-.2,2.5v4.4c0,0,.2.5.2.5v.4c0,0,.3.4.3.4l.2.4.2.4.2.4.3.4.3.3.3.3.3.2.4.2.4.2.4.2.2.7.2.7.2.7.2.8.3,1.6v.8c0,0,.2.8.2.8v.6c0,0,.2.6.2.6v.6c0,0,.2.6.2.6l.3,1.2.4,1.2.2.5.2.5.2.4.2.5.4.9.5.9v-.4c0,0,0-.4,0-.4v-1.3c0,0,.2-.4.2-.4v-.3c0,0,.4-.7.4-.7l.3-.6.2-.6v-.3c0,0,.2-.3.2-.3v.7c0,0,.2.7.2.7l.2.7.2.7.2.6.3.7.2.4.2.4.4.7.8,1.3.4.6.4.6.4.6.4.6,1,1.2,1,1.1.5.5.5.5.5.4.5.4,1.2.9.4.3.2.2.2.2.8.5.7.5.7.5v-3.4.4c0,0,.3.4.3.4l.3.8.4.7.4.8.4.7.4.7.5.7.5.7,1.1,1.2,1.1,1.2,1.1,1.1,1.1,1,1.1,1,1.2.9,1.2.8,1.2.8v-.8c0,0,.3-.7.3-.7l.2-.6.2-.5.2.4.2.4.2.4.2.4.2.4.3.4.3.4.3.4.3.3.3.3.3.3.4.3.6.5.4.3.4.3.9.4.9.4.9.4,1,.4,1,.3,1.1.3,1.1.2,1.2.2v-.9c0,0,.2-.4.2-.4v-.4c0,0,.2-.3.2-.3l.2-.3.2-.2.2-.2h.2c0,0,.2-.2.2-.2h.4c0,0,.3.2.3.2l.3.2.3.2.4.3.6.4.6.4,1.3.9.7.4.7.4,1.4.7,1.4.6.7.3.7.3.7.2.7.2.7.2.7.2.8.2.8.3h-.6c0,0-.4,0-.4,0h-9.9c0,0-1.1.2-1.1.2h-1c0,0-1,.2-1,.2l-1,.2v1.1c0,0,.2.4.2.4v.3c0,0,.3.4.3.4l.2.3.2.3h-2.2c0,0-.5-.2-.5-.2h-.4c0,0-.4-.3-.4-.3l-.4-.2-1.4-.5-1.4-.4-1.4-.3-1.3-.2h-1.4c0,0-.7,0-.7,0h-.7c0,0-1.3.3-1.3.3l-1.3.3.3.3.3.3h0c0,0,0,.3,0,.3h0c0,0,0,.3,0,.3l.2.2.2.2.2.2h0c0,0-.9.6-.9.6l-.8.6-.8.6-.8.7-.8.7-.7.7-.7.7-.7.8-.4.4-.4.4-.4.4-.4.4-.5.4-.5.4-.5.4-.5.4-.5.3-.3.2-.3.2h-.3c0,0-.3.3-.3.3l-.6.3-.6.2-.6.2-.6.2h-.4c0,0-.3.2-.3.2l.9.8.9.9.9,1,.9,1.1h-1.9c0,0-1.8-.2-1.8-.2h-1.2c0,0-1.1-.2-1.1-.2l-1.1-.2-1.1-.2-1.1-.2-1-.3-1-.3-1-.3-1-.4-.9-.4-.9-.4-.9-.4-.9-.4-.8-.4-.8-.5-.8-.5v.4c0,0,.3.4.3.4l.2.4.3.4.3.3.3.3.3.2.4.2h-1.1c0,0-1.1-.2-1.1-.2l-1-.2-1-.2-1-.3-1-.3-1-.3-1-.3-1-.4-.9-.4-.9-.4-.9-.4-.9-.4-.9-.4-1.8-1-.9-.5-.8-.5-.8-.5-.8-.5-1.3-1-.6-.4-.5-.4-.5-.4-.4-.4-.4-.4-.4-.4-.4-.5-.4-.4-.4-.5-.4-.4-.4-.5-.3-.5-.4-1-.3.6-.3.6-.3.6-.3.5-.4.5-.3.4-.2.2-.2.3-.3.4-.4-.6-.4-.6-.5-1.3-.5-1.3-.4-1.3-.2-.7-.2-.6-.3-1.3v-.7c0,0-.2-.7-.2-.7v-1.4c0,0-.2-1.3-.2-1.3v-1.2c0,0-.2-1.2-.2-1.2v-5.4l-.6.4-.3.2-.3.2h-.4c0,0-.3.2-.3.2l-.6.2h-1.8c0,0-.4-.2-.4-.2h-.7c0,0,.6-1.5.6-1.5l.7-1.4.7-1.5.8-1.5.5-1.1.5-1.1.4-1.1.4-1.1.4-1.1.4-1.1.4-1.1.2-.5.2-.5.2-.5.2-.5.2-.5.2-.5.3-1.2.3-1.2.2-1.2.2-1.2v-.6c0,0,.2-.6.2-.6l.2-1.2v-1.3c0,0,.2-1.3.2-1.3v-1.3c0,0,.2-1.3.2-1.3v-5c0,0-.2-2.5-.2-2.5l-.2-2.4v-1.2c0,0-.2-1.2-.2-1.2l-.2-1.2-.2-1.2-.2-1.3v-1.3c0,0-.2-1.2-.2-1.2v-2.3c0,0,.3-1.2.3-1.2l.2-1.2.3-1.1.4.2.4.3.7.6.7.7.7.8.4-.6.4-.5.4-.5.4-.4.4-.4.4-.4.4-.4.5-.4.4,1.3.3,1.3.3,1.3.2,1.4.2,1.3v1.4c0,0,.2,1.4.2,1.4v1.5h.4c0,0,.4-.2.4-.2h.4c0,0,.4-.2.4-.2h.2c0,0,.2-.2.2-.2h.4c0,0,.6-.4.6-.4l.6-.3.3-.2.3-.2.3-.2h.2c0,0,0-.2,0-.2h.7ZM235.4,173.8l.2-.3.2-.3.2-.3.2-.2.2-.2.2-.2.4-.3v-.2c0,0,.2,0,.2,0h0c0,0,0,0,0,0h.2c0,0,2.9-1.1,2.9-1.1l.2-.2h.3c0,0,.3-.2.3-.2h.4c0,0,.4-.2.4-.2h1.6c0,0,0,0,0,0h.2c0,0,.6.3.6.3l.6.2h.4c0,0,.4.2.4.2h.4c0,0,.4.3.4.3l.4.2.3.2.2.2.2.2.2.3.5,1.1.2.5.2.5.4,1.1.2.5.2.6v.5c0,0,.2.6.2.6v.6c0,0,0,.6,0,.6v2.6c0,0,0,.2,0,.2h0v.2h0v.4c0,0-.2,0-.2,0h0c0,0,0,.3,0,.3h0c0,0,0,.3,0,.3l-.3.3h0c0,0-.2.3-.2.3l-.3.3-.3.3-.7.4-.4.2-.4.2h-.4c0,0-.4.2-.4.2h-1.7c0,0-.3-.2-.3-.2h-.2c0,0-.4-.3-.4-.3l-.7-.4-.6-.3-.6-.2-.6-.2h-.5c0,0-.5,0-.5,0h-.9c0,0-.4.3-.4.3l-.4.2-.4.3-.3.4-.3.4v.2c0,0-.2.3-.2.3v.3c0,0-.2.3-.2.3v.6c0,0-.2.4-.2.4v.4c0,0-.3.4-.3.4l-.2.4-.2.4-.2.4v.2c0,0-.2.2-.2.2v.2c0,0-.2.2-.2.2l-.3.3-.3.3h-.3c0,0,0,0,0,0h-.2c0,0,0,.3,0,.3l-.3.2-.3.3-.4.2-.4.2-.7.4-.6.3-.6.2-.6.2h-.6c0,0-.5.2-.5.2h-1.1c0,0-.5-.3-.5-.3l-.4-.2-.4-.3-.4-.3-.4-.4-.4-.4-.4-.4-.4-.5v.6c0,0-.2.7-.2.7v.6c0,0-.2.6-.2.6v.6c0,0-.2.3-.2.3v.6c0,0-.2.3-.2.3v.6c0,0-.2.3-.2.3v.3c0,0-.3.5-.3.5h0v.6c0,0-.3.5-.3.5l-.2.4-.2.5-.2.4-.2.4-.7-2.1-.7-2.1-.7-2.1-.8-2.1-.4-1.1-.3-1-.2-1v-2c0,0,.3-1,.3-1v-.4c0,0,.3-.4.3-.4l.4-1,.2-.4.3-.4.3-.4.4-.4.4-.4.4-.4.4-.4.5-.3h0c0,0,.4.3.4.3h.2c0,0,.2.2.2.2h.4c0,0,.2,0,.2,0h1.5c0,0,1.9,0,1.9,0l2.5-.8.6-.5.6-.4.5-.4.5-.4.4-.4.4-.4.4-.4.3-.3,1-1.2,1.2-1Z"/>
        <path class="cls-1" d="M211.4,179.3l.4.2.4.2h.4c0,0,.4.2.4.2l-.4,2.5-.3,2.5-.2,2.5v4.4c0,0,.2.5.2.5v.4c0,0,.3.4.3.4l.2.4.2.4.2.4.3.4.3.3.3.3.3.2.4.2.4.2.4.2.2.7.2.7.2.7.2.8.3,1.6v.8c0,0,.2.8.2.8v.6c0,0,.2.6.2.6v.6c0,0,.2.6.2.6l.3,1.2.4,1.2.2.5.2.5.2.4.2.5.4.9.5.9v-.4c0,0,0-.4,0-.4v-1.3c0,0,.2-.4.2-.4v-.3c0,0,.4-.7.4-.7l.3-.6.2-.6v-.3c0,0,.2-.3.2-.3v.7c0,0,.2.7.2.7l.2.7.2.7.2.6.3.7.2.4.2.4.4.7.8,1.3.4.6.4.6.4.6.4.6,1,1.2,1,1.1.5.5.5.5.5.4.5.4,1.2.9.4.3.2.2.2.2.8.5.7.5.7.5v-3.5l.4,1,.4,1,.4,1,.6,1,.4.4.4.4.8,1,1.1,1.2,1.1,1.2,1.1,1.1,1.1,1,1.1,1,1.2.9,1.2.8,1.2.8v-.8c0,0,.3-.7.3-.7l.2-.6.2-.5.2.4.2.4.2.4.2.4.2.4.3.4.3.4.3.4.3.3.3.3.3.3.4.3.6.5.4.3.4.3.9.4.9.4.9.4,1,.4,1,.3,1.1.3,1.1.2,1.2.2v-.9c0,0,.2-.4.2-.4v-.4c0,0,.2-.3.2-.3l.2-.3.2-.2.2-.2h.2c0,0,.2-.2.2-.2h.4c0,0,.3.2.3.2l.3.2.3.2.4.3.6.4.6.4,1.3.9.7.4.7.4,1.4.7,1.4.6.7.3.7.3.7.2.7.2.7.2.7.2.8.2.8.3h-.6c0,0-.4,0-.4,0h-9.9c0,0-1.1.2-1.1.2h-1c0,0-1,.2-1,.2l-1,.2v1.1c0,0,.2.4.2.4v.3c0,0,.3.4.3.4l.2.3.2.3h-2.2c0,0-.5-.2-.5-.2h-.4c0,0-.4-.3-.4-.3l-.4-.2-1.4-.5-1.4-.4-1.4-.3-1.3-.2h-1.4c0,0-.7,0-.7,0h-.7c0,0-1.3.3-1.3.3l-1.3.3.3.3.3.3h0c0,0,0,.3,0,.3h0c0,0,0,.3,0,.3l.2.2.2.2.2.2h0c0,0-.9.6-.9.6l-.8.6-.8.6-.8.7-.8.7-.7.7-.7.7-.7.8-.4.4-.4.4-.4.4-.4.4-.5.4-.5.4-.5.4-.5.4-.5.3-.3.2-.3.2h-.3c0,0-.3.3-.3.3l-.6.3-.6.2-.6.2-.6.2h-.4c0,0-.3.2-.3.2l.9.8.9.9.9,1,.9,1.1h-1.9c0,0-1.8-.2-1.8-.2h-1.2c0,0-1.1-.2-1.1-.2l-1.1-.2-1.1-.2-1.1-.2-1-.3-1-.3-1-.3-1-.4-.9-.4-.9-.4-.9-.4-.9-.4-.8-.4-.8-.5-.8-.5v.4c0,0,.3.4.3.4l.2.4.3.4.3.3.3.3.3.2.4.2h-1.1c0,0-1.1-.2-1.1-.2l-1-.2-1-.2-1-.3-1-.3-1-.3-1-.3-1-.4-.9-.4-.9-.4-.9-.4-.9-.4-.9-.4-1.8-1-.9-.5-.8-.5-.8-.5-.8-.5-1.3-1-.6-.4-.5-.4-.5-.4-.4-.4-.4-.4-.4-.4-.4-.5-.4-.4-.4-.5-.4-.4-.4-.5-.3-.5-.4-1-.3.6-.3.6-.3.6-.3.5-.4.5-.3.4-.2.2-.2.3-.3.4-.4-.6-.4-.6-.5-1.3-.5-1.3-.4-1.3-.2-.7-.2-.6-.3-1.3v-.7c0,0-.2-.7-.2-.7v-1.4c0,0-.2-1.3-.2-1.3v-1.2c0,0-.2-1.2-.2-1.2v-5.4l-.6.4-.3.2-.3.2h-.4c0,0-.3.2-.3.2l-.6.2h-1.8c0,0-.4-.2-.4-.2h-.7c0,0,1-2.2,1-2.2l.5-1.1.5-1.1.8-1.6.5-1.1.5-1.1.4-1.1.4-1.1.4-1.1.4-1.1.4-1.1.2-.5.2-.5.2-.5.2-.5.2-.5.2-.5.3-1.2.3-1.2.2-1.2.2-1.2v-.6c0,0,.2-.6.2-.6l.2-1.2v-1.3c0,0,.2-1.3.2-1.3v-1.3c0,0,.2-1.3.2-1.3v-5c0,0-.2-2.5-.2-2.5l-.2-2.4v-1.2c0,0-.2-1.2-.2-1.2l-.2-1.2-.2-1.2-.2-1.3v-1.2c0,0-.2-1.2-.2-1.2v-2.3c0,0,.3-1.2.3-1.2l.2-1.2.3-1.2.4.2.4.3.7.6.7.7.7.8.4-.6.4-.5.4-.5.4-.4.4-.4.4-.4.4-.4.5-.4.4,1.4.4,1.4.3,1.5.2,1.5v1.3c0,0,.2,1.3.2,1.3v2.6h.4c0,0,.4-.2.4-.2h.4c0,0,.4-.2.4-.2h.2c0,0,.2-.2.2-.2h.4c0,0,.6-.4.6-.4l.6-.3.3-.2.3-.2.3-.2h.2c0,0,0-.2,0-.2h0l.5-.4v2.9c0,0-.2.7-.2.7v.7c0,0-.3.7-.3.7l-.2.7-.4,1.6-.4,1.6-.4,1.6-.4,1.6-.5,1.5-.5,1.5-.6,1.5-.3.8-.3.8.5-.2.6-.2.5-.2h.2c0,0,.2,0,.2,0h.3c0,0,.3-.2.3-.2h.2c0,0,.2,0,.2,0l.5-.2h.3c0,0,.2-.2.2-.2h.2l.5-.2.5,4.8.6,4.9,1.3,10.8v.8c0,0,.3.8.3.8l.2.8.2.8.4,1.4.2.7.2.7.4,1.4.4,1.4h.2c0,0,.2-.2.2-.2h0c0,0,0-.2,0-.2h0c0,0,0-.2,0-.2l.2-.2h0c0,0,0-.2,0-.2v-.2c0,0,.2-.2.2-.2l.4-.7.4-.6.4-.5.4-.4.4-.4.4-.3.4-.2h.4c0,0,.4,0,.4,0h.4c0,0,.4.3.4.3l.4.2.4.3.4.4.5.4.5.5,1.6,1.9,1.7,1.9,1.6,1.9,1.7,2,.3.3.3.3.3.3.3.3.2.2.3.2.2.2h0c0,0,0,0,0,0h0c0,0,.2.2.2.2h.2c0,0,.2.2.2.2h1c0,0,.2-.2.2-.2h0c0,0,0-.2,0-.2h.2c0,0,0-.3,0-.3v-.2c0,0,0,0,0,0h0c0,0,0-.3,0-.3v-.3c0,0,0-.2,0-.2h0v-.2h0v-.6c0,0,0-.4,0-.4v-.4c0,0,0-.4,0-.4v-.4c0,0,.6.6.6.6l.5.6.5.5.6.5.6.4.7.4.7.4.7.4h0s0-1.2,0-1.2l1.3.4,1.3.4,1.3.4,1.3.4,1.2.4.5.2.5.2h.5c0,0,.5.2.5.2h.5c0,0,.3,0,.3,0h.9c0,0,0,0,0,0h3.6c0,0-.5-.4-.5-.4l-.5-.3-.6-.2-.7-.2-1.5-.4-1.4-.5-.7-.3-.7-.3-1.3-.6-.7-.4-.6-.4-.6-.4-.6-.4-.6-.4-.6-.4-.6-.4-.5-.4v.3c0,0-.5.3-.5.3v.3c0,0-.2.2-.2.2h0v.2l-.2.3h0c0,0,0,.3,0,.3h0v.2l-.2.2h0c0,0,0,0,0,0h0c0,0-.2-.3-.2-.3l-.4-.3-.4-.3-.4-.3-.4-.4-.4-.3-.5-.4-.5-.3-.4-.3-.4-.3-.4-.3-.4-.3-.4-.3-.4-.3-.6-.6-.6-.6-.5-.6-.4-.7-.3-.4-.2-.4-.3-.4-.3-.4-.3-.4-.3-.3-.3-.3-.3-.2-.3-.2h-.3c0,0-1.3,0-1.3,0h-.3c0,0-.2.3-.2.3l-.3.2-.2.3-.3.3-.2.4-.2.4-.2.4-.7-1.1-.4-.5-.4-.5-.4-.8-.4-.8-.4-.8-.4-.8-.9-2.1-.9-2-.8-2-.8-1.9-.2.2-.2.2-.3.2-.3.2h-.2c0,0-.2.2-.2.2l-.4.2-.4.2-.4.2-.2-.5-.2-.4-.2-.5-.2-.5-.2-.5v-.5c0,0-.3-1.2-.3-1.2v-.6c0,0-.2-.6-.2-.6v-.6c0,0,0-.6,0-.6v-2.9c0,0,.2-1.4.2-1.4l.2-1.3.2-1.3.3-1.3.2-.8v-.4c0,0,.2-.4.2-.4v-1.7c0,0,0-.3,0-.3v-.5c0,0-.3-.4-.3-.4v-.2c0,0-.2-.2-.2-.2l-.3-.4-.2-.2-.2-.2-.4-.3-.4-.2-.5-.2h-.5c0,0-.4,0-.4,0h-1.2l.6-.8.7-.9.7-1,.7-1,.2-.3.2-.3.4-.5.4-.5.2-.3.2-.3.2-.3.2-.3.3-.5.3-.5.3-.5.3-.6.3-.5.3-.6.3-.6.2-.6.2-.6.2-.6.2-.6.2-.8.2.3.3.2.5.4h0ZM260.9,132.6l.2-.4-2.6-.2h-2.5c0,0-2.5-.2-2.5-.2h-7.2c0,0-2.3.2-2.3.2l-2.3.2v4.6c0,0-.2.4-.2.4v.2c0,0-.2.3-.2.3l-.2.4-.2.4v.2c0,0-.2.2-.2.2l-.2.4-.2.4-.2.4h-.8c0,0-.7.3-.7.3l-.7.2-.6.2-.6.2-.6.2-.5.3-.5.3-.5.3-.4.3-.4.4-.4.4-.4.4-.4.4-.4.4-.3.4-.4.4-.3.4-.4.4-.3.4-.4.4-.2.2h0c0,0,0,.2,0,.2h0c0,0,0,0,0,0h0c0,0-.2.3-.2.3l-.4.4-.4.3-.2.2-.2.2-.7.5-.8.4-.4.2-.4.2-.5.2-.5.2h-.4c0,0-.4.2-.4.2h-1.3c0,0-.4-.2-.4-.2l-.4-.2-.4-.2-.4-.2-.4-.3-.4-.3-.3-.4-.3-.4-.3-.4.3.6.3.6.2.6v.7c0,0,0,.7,0,.7v.7c0,0-.2.4-.2.4v.4c0,0-.3.8-.3.8h.4c0,0,.5.2.5.2h.4c0,0,.4.3.4.3l.4.2.4.2.9.4.9.4.8.4.8.4.8.5v-.3c0,0,.2-.3.2-.3v-1c0,0-.3-.3-.3-.3l-.2-.4-.2-.3h1.2c0,0,1.3-.2,1.3-.2h1.2c0,0,.6-.2.6-.2h.6c0,0,.5-.2.5-.2h.6c0,0,1.2-.3,1.2-.3l1.2-.2,1.2-.2.5-.2.5-.2.5-.2h.3c0,0,.3-.2.3-.2l.5-.2.5-.2h.3c0,0,.3-.2.3-.2l.4-.2.4-.3.4-.3.4-.3.4-.3.4-.4.4-.3.4-.4.4-.4,1.2-1.4,1.3-1.3,1.3-1.3,1.3-1.3.3-.3.4-.3.3-.2.4-.2.3-.2h.3c0,0,.3-.2.3-.2h.8c0,0,.3.2.3.2l.3.2.3.2.3.2.3.3.3.3.3.3.2.3.2.3.2.3.2.3.2.3v.3c0,0,.2.3.2.3v.6c0,0,.3.6.3.6l.2.5v.3c0,0,.3.3.3.3l-.2,1.6.6-2.5.6-2.4.4-1.2.4-1.1.7-2.1.8-2.1.4-1,.4-.9.4-.9.4-.9,1.1-1.6h0ZM230,179.4l.3-.2h0l.4-.4.5-.4.5-.4.4-.4.4-.4.4-.4.4-.4.3-.3,1-1.2.9-1.2.2-.3.2-.3.2-.3.2-.2.2-.2.2-.2.4-.3v-.2c0,0,.2,0,.2,0h0c0,0,0,0,0,0h.2c0,0,2.9-1.1,2.9-1.1l.2-.2h.3c0,0,.3-.2.3-.2h.4c0,0,.4-.2.4-.2h1.6c0,0,0,0,0,0h.2c0,0,.6.3.6.3l.6.2h.4c0,0,.4.2.4.2h.4c0,0,.4.3.4.3l.4.2.3.2.2.2.2.2.2.3.4.8.4.8.3.9.3.9.2.9.2,1v1c0,0,.2,1,.2,1h0v2.1c0,0,0,.2,0,.2h0v.2h0v.4c0,0-.2,0-.2,0h0c0,0,0,.3,0,.3h0c0,0,0,.3,0,.3l-.3.3h0c0,0-.2.3-.2.3l-.3.3-.3.3-.7.4-.4.2-.4.2h-.4c0,0-.4.2-.4.2h-1.7c0,0-.3-.2-.3-.2h-.2c0,0-.4-.3-.4-.3l-.7-.4-.6-.3-.6-.2-.6-.2h-.5c0,0-.5,0-.5,0h-.9c0,0-.4.3-.4.3l-.4.2-.4.3-.3.4-.3.4v.2c0,0-.2.3-.2.3v.3c0,0-.2.3-.2.3v.6c0,0-.2.4-.2.4v.4c0,0-.3.4-.3.4l-.2.4-.2.4-.2.4v.2c0,0-.2.2-.2.2v.2c0,0-.2.2-.2.2l-.3.3-.3.3h-.3s0,.2,0,.2h-.2c0,0,0,.3,0,.3l-.3.2-.3.3-.4.2-.4.2-.7.4-.6.3-.6.2-.6.2h-.6c0,0-.5.2-.5.2h-1.1c0,0-.5-.3-.5-.3l-.4-.2-.4-.3-.4-.3-.4-.4-.4-.4-.4-.4-.4-.5v.6c0,0-.2.7-.2.7v.6c0,0-.2.6-.2.6v.6c0,0-.2.3-.2.3v.6c0,0-.2.3-.2.3v.6c0,0-.2.3-.2.3v.3c0,0-.3.5-.3.5h0v.6c0,0-.3.5-.3.5l-.2.4-.2.5-.2.4-.2.4-.7-2.1-.7-2.1-.7-2.1-.8-2.1-.4-1.1-.3-1-.2-1v-2c0,0,.3-1,.3-1v-.4c0,0,.3-.4.3-.4l.4-1,.2-.4.3-.4.3-.4.4-.4.4-.4.4-.4.4-.4.5-.3h-2.3c0,0-.4-.2-.4-.2h-.4c0,0-.4-.2-.4-.2l-.4-.2-.3-.2-.3-.2-.3-.2-.3-.3-.2-.3-.2-.3-.2-.3-.2-.4-.2-.4-.2-.4v-.4c0,0-.2-.4-.2-.4v-.4c0,0-.2-.4-.2-.4v-.4.2c0,0-.3.2-.3.2l-.2.2-.2.2h-.2c0,0-.2.2-.2.2h-.3c0,0-.3.2-.3.2h-.6c0,0-.6.2-.6.2h-1.6c0,0-.5-.2-.5-.2h-.5c0,0-.4-.2-.4-.2l-.4-.2-.4-.2-.4-.2-.4-.3-.4-.3-.4-.3-.4-.4-.4-.4-.4-.4-.4-.4-.4-.4-.3-.4-.3-.4-.3-.4-.2-.4-.2-.4-.2-.5v-.5c0,0-.2-.5-.2-.5v-.5c0,0,0-.6,0-.6v-1.9c0,0,.2-.6.2-.6l.2-.6.2-.5v-.3c0,0,.3-.3.3-.3l.3-.4.3-.4.4-.4.4-.4.4-.4.2-.2h.3c0,0,.5-.3.5-.3l.5-.2.6-.2h.3c0,0,.4,0,.4,0h.7c0,0,.7,0,.7,0h.8c0,0,.3-.2.3-.2l.5-.2.3-.2.3-.2.2-.2.2-.2v-.2c0,0,.2,0,.2,0h0c0,0,0-.2,0-.2v-.2c0,0,.3-.4.3-.4v-.2c0,0,.2-.2.2-.2v-.2c0,0,.2-.2.2-.2v.2h0c0,0,0-.3,0-.3l.2-1,.2-1v-.5c0,0,.2-.5.2-.5v-.5c0,0,0-.3,0-.3v-.2h0c0,0,0,0,0,0h0v.2h0c0,0,0,.5,0,.5l-.2.4-.2.4-.2.4-.2.3-.2.3-.2.3-.3.2-.3.2-.3.2-.3.2h-.3c0,0-.3.2-.3.2h-.4c0,0-.2,0-.2,0h-3.3c0,0-.5-.2-.5-.2h-.5c0,0-.5-.2-.5-.2h-.5c0,0-.4-.2-.4-.2h-.4c0,0-.4-.2-.4-.2l-.4-.2-.4-.2-.4-.2-.4-.2-.4-.2-.4-.2-.4-.2-.3-.2h-.2c0,0,0,.3,0,.3h-.2c0,0,0,.3,0,.3l-.3.2-.3.3-.3.2-.3.2-.4.5-.3.2-.4.2-.4.2h-.4c0,0-.4.2-.4.2h-.7c0,0-.2,0-.2,0h-.5v-3.7c0,0-.2-.4-.2-.4v-.4c0,0-.2-.4-.2-.4l-.2-.4-.2-.4-.2-.4-.2-.3-.2-.3-.2-.3-.4.4-.4.4h-.4c0,0-.4.2-.4.2h-1.9c0,0-.4-.3-.4-.3h-.2c0,0-.2-.2-.2-.2l-.2-.2-.2-.2-.2-.2v-.2c0,0-.3-.2-.3-.2v-.2c0,0-.2-.3-.2-.3v-.3c0,0-.2-.5-.2-.5v-2c0,0,.2-.4.2-.4v-.4c0,0,.2-.4.2-.4l.2-.4-.5-1.2-.5-1.2-.4-1.2-.4-1.2-.8-2.3-.4-1.2-.4-1.1-1.3,2.8-1.3,2.9-1.4,3.3-.7,1.7-.7,1.8-.9,2.2-.9,2.2-.9,2.2-1,2.3-.5,1.1-.4,1.2-.4,1.2-.4,1.2-.4,1.2-.4,1.3-.4,1.3-.4,1.3-.4,1.5-.4,1.5-.7,3.1-.4,1.5-.3,1.6-.3,1.6-.2,1.6v.4c0,0-.3,1.2-.3,1.2l-.2,1.3-.2,1.3v1.3c0,0-.3,2.6-.3,2.6v1.3c0,0,0,1.3,0,1.3l-.5,16.3v3.3c0,0,0,3.3,0,3.3v13.7c0,0,.3,3.5.3,3.5v1.3c0,0,.3,1.3.3,1.3l.2,1.3.2,1.3.2,1.2.3,1.3.4,1.2.4,1.2.3.7.3.8.6,1.5.3.7.4.7.7,1.4.4.7.4.7.8,1.4.4.7.4.7.4.6.5.7.6.8.4.4.4.4.8.8.4.4.4.4.8.8.4.4.4.4.9.8,1,.8,1.2.9,1.3.8,1.3.8,1.3.7,1.3.7,1.3.6,1.3.5,1.3.5,1.4.4,1.5.4,1.5.4,1.5.4,1.6.4,1.6.4,1.6.3,1.7.3,1.4.2,1.4.2h1.4c0,0,1.4.2,1.4.2h4.3c0,0,1.4-.2,1.4-.2l-.4-.4-.4-.4-.4-.4-.3-.4-.2-.4v-.3c0,0-.2-.3-.2-.3v-.5c0,0,0-.3,0-.3v-.3l1.5.2,1.5.2h1.5c0,0,1.6.2,1.6.2h3.3c0,0,1.7-.3,1.7-.3l1.7-.2,1.3-.2,1.3-.2,1.3-.3,1.3-.3h.2c0,0,.2,0,.2,0h.3c0,0,.6-.3.6-.3h.2c0,0,.2,0,.2,0h.3c0,0,.6-.3.6-.3l.5-.2h.2c0,0,.2,0,.2,0h.3c0,0,1.2-.4,1.2-.4l1.2-.4,1.2-.4,1.2-.4,1.2-.4,1.2-.4,1.2-.4,1.1-.5,1.1-.5,2.4-1.1,2.5-1,2.5-.9,2.6-.8,1.4-.4,1.4-.3,1.4-.2h1.4c0,0,1.4,0,1.4,0h1.4c0,0,1.4.3,1.4.3l1.4.2v-.5c0,0-.2-.3-.2-.3v-.5c0,0-.2-.3-.2-.3h0s-.2-.5-.2-.5v-.3c0,0-.2-.3-.2-.3v-.3c0,0-.2-.3-.2-.3l-.3-.5.4-.3.4-.3.4-.3.4-.2.4-.2.4-.2.5-.2h.5c0,0,.5-.2.5-.2h.5c0,0,.5-.2.5-.2h3.2c0,0,1.6.3,1.6.3l1.6.2,1.6.2,1.6.3,3.1.4,3.1.5.7.2.7.2.7.2.7.2.7.2.7.2,1.4.4,1.3.4,1.3.5,1.3.6.6.3.6.4-.5-.7-.6-.6-.4-.4-.3-.3-.6-.5-.7-.5-.4-.3-.4-.2-.7-.4-.4-.2-.4-.2h.3c0,0,.3,0,.3,0h.5c0,0,.4-.2.4-.2h.4c0,0,1.5-.5,1.5-.5l1.5-.4,1.5-.4,1.6-.4,1.6-.4,1.6-.3,1.6-.3,1.7-.2,1.7-.3,1.7-.2,3.5-.3h1.8c0,0,1.8-.2,1.8-.2h3.6c0,0,1.7,0,1.7,0h1.7c0,0,1.7.2,1.7.2l1.7.2,1.7.2,1.7.2h.8c0,0,.8.3.8.3l1.7.3,1.6.3,1.7.3,1.7.3,1.7.3,1.7.2,1.8.2,1.8.2h1.8c0,0,1.3,0,1.3,0h1.3c0,0,1.3,0,1.3,0h4.9c0,0,1.2,0,1.2,0h.5c0,0,.5-.2.5-.2l1-.2,1-.3.4-.2.4-.2h.2c0,0,.3-.2.3-.2l.4-.2.9-.4.4-.2h0c0,0,0,0,0,0h.4c0,0,.9-.5.9-.5l.5-.4.5-.4.5-.4h0c0,0,.2-.2.2-.2l.3-.2.4-.4.3-.2h0c0,0,.2-.2.2-.2l.4-.4.4-.4.4-.4.4-.4.4-.4.4-.4.4-.4.4-.4.4-.5.4-.5.4-.6.4-.5.6-1.2.3-.5.3-.5.3-.5.3-.5.2-.5.2-.5.4-1,.3-1v-.4c0,0,.2-.4.2-.4l-.9.5-.8.5-.7.5-.7.6-1.8,1.3-1.8,1.3-.4.4-.4.4-.9.7-1,.6-.9.7-2,1.3-2,1.3-.5.3-.5.3-.5.3-.5.3-.6.3-.5.2-.6.2-.5.2-.6.2-.6.2h-.6c0,0-.6.2-.6.2h-.6c0,0-.6.2-.6.2h-1.3c0,0-1.3,0-1.3,0h-2.6c0,0-1.3-.2-1.3-.2h-1.3c0,0-1.2-.2-1.2-.2l-1.2-.2-1.2-.2-.5-.2-.5-.2-1.1-.4-.5-.3-.4-.3-.4-.3-.4-.3-.4-.4-.4-.4-.8-.7-.4-.4-.4-.4-.4-.4-.4-.4v-.3c0,0-.3-.2-.3-.2l-1.7.3h-.8c0,0-.8.2-.8.2h-.8c0,0-.8.2-.8.2h-.8c0,0-.8.2-.8.2h-1.7c0,0-.4,0-.4,0h-1.3c0,0-.9,0-.9,0h-6.9c0,0-1.4-.2-1.4-.2h-1.4c0,0-1.3-.3-1.3-.3l-1.3-.2-1.3-.2h-2.1c0,0-1.1-.3-1.1-.3l-1.1-.2-1.1-.3-1-.3-1-.4-1-.4-1.1-.4h-.2c0,0-1.4-.5-1.4-.5l-1.4-.4-1.4-.5-1.4-.5-1.4-.6-1.4-.6-1.3-.6-1.3-.6-1.3-.7-1.3-.7-1.3-.8-1.3-.8-1.3-.8-1.3-.9-1.3-.9-1.3-.9-1.1-.8-1.1-.8-2.1-1.7-1-.9-1-.9-1-1-1-1-.6-.6-1.5-1.6-.7-.8-.7-.8-1.4-1.6-.7-.8-.6-.8-1-1.3-.9-1.3-.9-1.3-.8-1.3-.8-1.3-.8-1.3-.7-1.3-.7-1.3-.7-1.3-.6-1.3-.6-1.3-.5-1.3-.5-1.3-.5-1.3-.4-1.4-.4-1.4-.4-1.1-.4-.3-.4-.3-.4-.3-.4-.4-.4-.4-.3-.4-.3-.4-.3-.4-.3-.4-.3-.4-.3-.4-.2-.4-.2-.5-.2-.5-.2-.5v-.5c0,0-.2-.5-.2-.5h0l-.2-1.2-.2-1.1-.2-1.1v-1.1c0,0-.2-1.2-.2-1.2v-1.2c0,0-.2-1.2-.2-1.2v-1.9c0,0-.2-.4-.2-.4v-.3c0,0-.3-.3-.3-.3l-.2-.3-.2-.3-.3-.2-.3-.3-.4-.2-.4-.2-.4-.2-.4-.2h-.4c0,0-.4-.2-.4-.2h-.4c0,0,0-.2,0-.2h0c0,0,.2-.3.2-.3h0c0,0,0-.2,0-.2l.2-.2v-.2c0,0,.2,0,.2,0l.2-.3v-.3c0,0,.2-.2.2-.2h0v-.4c0,0,0-.2,0-.2v-.2c0,0,.2-.3.2-.3v-.4c0,0,0-.4,0-.4v-1.1c0,0,0-.5,0-.5v-1.8c0,0-.2-.4-.2-.4v-.4c0,0-.3-.3-.3-.3l-.2-.3-.2-.3-.2-.3-.2-.2-.3-.2-.3-.2h-.3c0,0-.3-.2-.3-.2h-.4c0,0-.4,0-.4,0h-1.6c0,0-.4.2-.4.2h-.4v.2l.4.3.4.3.4.3.4.4.4.4.3.4.2.4.2.4v.4c0,0,.2.4.2.4v1.3c0,0-.2.4-.2.4l-.2.4-.2.5-.4.6-.4.7-.4.6-.4.6-.5.5-.2.2h0c0,0-.3.4-.3.4h-.2l-.3.2h-.2c0,0-.4.4-.4.4l-.4.3-.4.3-.5.3-.5.2-.5.2-.5.2h-.5c0,0-.5.3-.5.3l-.5.2-.4.3-.4.3-.4.3-.4.4-.4.4-.7.8-.6.8-.6.8-.6.8-.2.3-.2.3-.5.4-.5.4-.6.4-.6.5-.4.3-.4.3h-3.2c0,0-.4-.3-.4-.3l-.3-.2-.6.2-.3-.2-.2-.2-.2-.2-.2-.2-.2-.3v-.3c0,0-.3-.3-.3-.3v-.3c0,0-.2-.3-.2-.3v-.3c0,0-.2-.4-.2-.4v-3.3c0,0-.2-.4-.2-.4v-.4c0,0-.2-.4-.2-.4l-.2-.4-.2-.4v-.2c0,0-.2,0-.2,0v-.2c0,0-.2,0-.2,0l-.2-.2h-.2c0,0,0-.2,0-.2h-.3c0,0-.3-.2-.3-.2h-.3v1.3c0,0,0,.6,0,.6v3.1c0,0,0,.5,0,.5v.5c0,0,.3,1.1.3,1.1l.2,1,.3,1,.2.5.2.4v.2c0,0,.3.2.3.2l.3.4h.3c0,0,.3.3.3.3h0c0,0,.4.4.4.4h.2c0,0,.3.2.3.2h.4c0,0,.2,0,.2,0h1.6c0,0,2,.2,2,.2l2.2-1h0ZM218.8,156.7l.6,1.1.5,1.1.5,1.1.4,1.1.4,1.1.4,1.1.3,1.1.3,1.2v1h0v.4c0,0-.2.2-.2.2h0c0,0-.2.2-.2.2h-.4c0,0-.4.2-.4.2h-.8c0,0-.2-.2-.2-.2h0v-.2h0v-1.5c0,0-.2-1.3-.2-1.3l-.3-2.6-.2-1.3-.2-1.3-.3-2.4h0ZM264.8,223.8l-.6-.4-.6-.4-.9-.5-.9-.4-.9-.4-.9-.4-.9-.4-.9-.4-.9-.4-.9-.3h-.4c0,0-.4-.2-.4-.2h-.4c0,0-.3,0-.3,0h-1.2c0,0-.3.2-.3.2h-.3c0,0-.3.2-.3.2h-.2c0,0-.2.2-.2.2l-.2.2-.2.2-.2.2-.4-1.3-.2-.6-.2-.6-.4-1.2-.3-.6-.3-.5-.3-.5-.3-.5-.4-.5-.3-.5-.4-.5-.4-.4-.7-1-.4-.5-.4-.4-.4-.4-.4-.4-.4.8-.4.9-.3.9-.3,1-.2,1-.2,1.1v.5c0,0,0,.5,0,.5v1.2l-.4-.3-.4-.3-.8-.6-.8-.7-.7-.8-.4-.4-.4-.4-.6-.9-.6-1-.5-1.1v-.2c0,0-.2-.2-.2-.2l-.2-.2-.2-.2h-.4c0,0-.2.3-.2.3h0c0,0,0,.3,0,.3l-.2.4-.3.4-.3.4-.2.4-.2.4-.4-1.2-.2-.5-.2-.5-.2-.6-.2-.5-.3-1.2-.3-1.3-.2-1.3v-1.3c0,0-.2-1.3-.2-1.3v-2.1c0,0-.2-.4-.2-.4v-.4c0,0-.2-.3-.2-.3v-.3c0,0-.2-.3-.2-.3v-.3c0,0-.2-.2-.2-.2v-.2c0,0-.2-.2-.2-.2l-.2-.2h0c0,0-.2-.2-.2-.2h-.2c0,0-.2-.2-.2-.2h-.9c0,0-.2.2-.2.2h-.2c0,0-.3.2-.3.2l-.2.2-.3.2-.3.2-.5.4-.4.4-.4.4-.4.4-.3.4-.4.4-.3.4-.3.4-.2.5-.3.2-.2.5-.2.5v.6c0,0-.2.5-.2.5v.6c0,0-.2.6-.2.6v2.2c0,0,.2.3.2.3v.3c0,0,.2.3.2.3v.2c0,0,.2.2.2.2v.2c0,0,.3,0,.3,0h.2c0,0,.2,0,.2,0h.5c0,0,.4-.2.4-.2h.4c0,0,.4-.2.4-.2h.9c0,0,.3.2.3.2l.3.2.3.2.3.2.2.2.2.3.2.3.2.4v.2c0,0,.2.2.2.2l.2.4.2.5.2.5.4,1.1.4,1,.3.4.3.5.3.4.3.4.3.4.4.4.7.9.4.4.4.4.7.6.7.6.7.5.8.5.8.4.4.2.4.2.2-.4.2-.4v-.3c0,0,.3-.3.3-.3l.2-.2.2-.2.2-.2h.2c0,0,.2-.2.2-.2h.5c0,0,.2.2.2.2l.3.2.3.2.3.2.3.3.3.3.4.5.3.4.3.4.4.5.4.5.4.5.4.5.4.5.5.4.5.4.5.4.5.4.6.4.6.4.6.4.6.4.7.4.7.4.7.4.7.3.7.3.8.3.8.2v-.4c0,0-.2-.4-.2-.4v-.6c0,0-.2-.5-.2-.5v-1.2c0,0,0-.2,0-.2h0c0,0,0-.2,0-.2h0c0,0,.2-.2.2-.2h.5c0,0,.2.2.2.2h.2c0,0,.2.2.2.2h.2c0,0,.4.4.4.4l.4.4.3.2.3.3.6.5.6.5.6.5.7.5,1.3,1,1.4,1,.7.4.7.4.7.4.8.4,1.6.8.8.4.8.4.7.3.7.3.7.3.7.3,1.5.4,1.5.4.8.2h.8c0,0,.8.2.8.2h.8c0,0,1.6.2,1.6.2h3.3c0,0,.2,0,.2,0h1c0,0,.5-.3.5-.3l.5-.2.5-.2.5-.2.5-.2.3-.2h0c0,0,.2-.2.2-.2l.5-.3.4-.3.4-.3.2-.2.3-.2.4-.4.5-.5.6-.5.6-.6.6-.6-2.2-1.4-2.2-1.3-1.2-.7-1.2-.6-1.2-.6-1.2-.6-.6-.4-.5-.4-.5-.4-.4-.3-.4-.4-.4-.3-.4-.3-.3-.3v1.4c0,0-.2.4-.2.4v.4c0,0-.3.4-.3.4l-.2.4-.2.3h0c0,0,0,.2,0,.2h0c0,0,0,0,0,0h0c0,0-.2.3-.2.3h-.2c0,0,0,0,0,0h-.7c0,0,0-.2,0-.2h0c0,0-.3-.3-.3-.3h0c0,0,0-.2,0-.2l-.3-.3-.2-.2v-.2c0,0-.4-.4-.4-.4l-.2-.2h0v-.2h0l-.3-.3-.2-.3-.3-.3-.2-.3-.3-.3-.3-.2-.5-.4-.5-.4-.5-.3-.6-.3-.6-.2-.5-.2-.4-.2-.4-.2-.4-.3h0v.4c0,0,0,.2,0,.2v.2c0,0,0,.2,0,.2v.2h0v.2h0v.2h0v.2h0c0,0,0,0,0,0h-.8c0,0-.2-.2-.2-.2h-.2c0,0,0,0,0,0h0l-.2-.2h0c0,0,0,0,0,0h0l-.2-.2-.2-.2-.3-.2-.2-.2-.3-.2-.3-.2-1-.7-.9-.6-.9-.6-.9-.5-.9-.5-.8-.4v.3h0v.6h0v.7h0c0,0,.6.4.6.4h0ZM273.5,223l1.2.4-.2-.4-.4-.7-.4-.7-.9-1.3-.9-1.3-.4-.6-.4-.5-.6-.7-.6-.6-.6-.6-.6-.5-.7-.4-.4-.3-.4-.2-.7-.4-.7-.4-1-.5-1-.5-1-.6-1-.6-1-.6-1-.7-.9-.7-.9-.8-1.1-1-1-1-1-1-.4-.5-.4-.4-.4-.5-.4-.5-.8-1-.7-1.1-.4-.5-.3-.5.4.4.4.4.4.4.4.4.8.7.4.4.4.4.4.3.4.3.4.3.4.3.9.4.4.2.5.2.6.2h.4c0,0,.4,0,.4,0h1.7l-.8-.7-.4-.4-.4-.4-.4-.4-.3-.4-.3-.4-.3-.4-.4-.8-.4-.8-.4-.9-.2-.4v-.4c0,0-.2-.2-.2-.2v-.2c0,0-.2-.2-.2-.2v-.2c0,0-.3-.3-.3-.3l-.2-.2-.2-.2h0c0,0,0-.2,0-.2h-.2c0,0-.2,0-.2,0h-.4c0,0,0,0,0,0h0c0,0,0,.2,0,.2h0c0,0-.3.3-.3.3l-.3.3-.2.2v.2c0,0-.3.2-.3.2v.2c0,0-.2-.8-.2-.8v-.8c0,0-.2-.9-.2-.9v-6.7c0,0-.2-.5-.2-.5v-.4c0,0-.3-.4-.3-.4l-.2-.4-.2.3-.3.3-.3.3-.3.3-.4.3-.4.3-.4.3h-.2c0,0,0,.2,0,.2l-.3.2h-.3c0,0-.2,0-.2,0h-1.8.3-.4l.2.4h0c0,0,0,.2,0,.2v.2c0,0,.3.4.3.4h0v.4c0,0,.3.2.3.2l.2.2.2.2h0c0,0,0,0,0,0h-.4c0,0-.4.2-.4.2h-1.8c0,0-.4-.2-.4-.2h-.4c0,0-.4-.3-.4-.3l-.4-.2-.4-.2-.4-.2-.4-.3-.4-.3-.4-.3-.3-.4-.2-.2-.2-.2-.4-.4-.3-.2-.3-.2-.4-.2-.4-.2-.6,1.1-.5,1.1-.4,1.1-.4,1.2-.3,1.2-.2,1.2-.2,1.3v1.3c0,0,0,.6,0,.6v1.8c0,0,.2.5.2.5v.5c0,0,.2.5.2.5l.2.5.2.4.2.4.2.4.3.4.3.4.3.4.3.4.4.4.3-.4.4-.4.4-.4.4-.4.4-.4.5-.4.6-.4.7-.4.5-.3.6-.3.6-.2h.6c0,0,0,.4,0,.4v2.2c0,0,.2.4.2.4v.4c0,0,.2.4.2.4l.2.4.2.4.2.4.2.4.3.4.3.4.3.4.8.8.8.8.8.8.8.8.8.7.8.7.8.6.8.6v-.4c0,0,.2-.4.2-.4v-.4c0,0,.2-.4.2-.4v-1.1l.5.6.5.6.5.7.6.7.6.7.6.8.6.8.6.9.4.4.4.4.2.2.2.2.4.3h.2c0,0,0,0,0,0h0l.3.2h.3c0,0,.2,0,.2,0h.4c0,0,0,0,0,0h.4c0,0,0-.2,0-.2l.3-.2v-.2c0,0,.2,0,.2,0l.2-.3h0v-.2h0v-.2c0,0,.2-.2.2-.2v-.2c0,0,.7.6.7.6l.6.6.7.6.4.3.4.3.8.5.8.5.9.5.4.3.4.3,1,.4,1,.4,1,.4.5-.4Z"/>
        <polygon class="cls-1" points="253.9 62 254 61 254 60.5 254 60.2 254 60.1 254 60 254 58.9 254 57.7 254 56.7 253.9 55.5 253.8 54.3 253.8 53.7 253.8 53.1 253.7 51.9 253.6 50.7 253.4 49.4 253.2 48.1 253.1 47.5 253 46.8 252.9 46.1 252.8 45.5 252.6 44.2 252.4 43.4 252.3 42.8 252.1 41.4 249.5 43.3 246.9 45.4 244.3 47.6 241.8 49.9 239.3 52.2 236.8 54.7 234.4 57.3 231.9 60 230.8 61.4 229.5 62.7 227.2 65.7 224.9 68.6 222.6 71.8 220.3 75 218.1 78.3 215.9 81.7 213.7 85.2 214.9 84.9 216.1 84.6 217.3 84.3 218.5 84.1 219.8 83.8 221.1 83.7 222.4 83.6 223.7 83.4 225.1 83.3 226.4 83.2 227.8 83.2 229.3 83.2 230.6 83.2 232.1 83.2 233.6 83.3 235.1 83.5 235.3 83.4 235.4 83.5 236.4 81.7 237.4 80.1 238.4 78.5 239.5 77 240.5 75.4 241.7 74 242.8 72.6 243.9 71.2 245.1 69.9 246.2 68.6 247.5 67.4 248.7 66.2 249.9 65.1 251.2 64 252.5 63 253.9 62"/>
        <polygon class="cls-1" points="422 63.5 421.7 62.8 421.4 62.2 421 60.9 421.4 62.2 421.7 62.8 422 63.5 422.5 65.6 422.9 67.8 423.2 68.8 423.4 69.9 423.8 72 423.9 74.3 424.1 76.5 424.2 77.7 424.2 78.7 424.2 81.1 424.2 82.2 424.1 83.4 424 85.8 423.9 87 423.8 88.2 423.7 89.4 423.5 90.6 423.3 91.9 423.1 93 422.9 94.3 422.7 95.5 422.1 98.1 421.8 99.4 421.5 100.6 420.8 103.2 420.4 104.6 420.1 105.8 419.2 108.5 418.3 111.2 417.2 113.9 416.2 116.6 415.6 118 415 119.4 413.8 122.3 413.1 123.6 412.5 125 411.1 127.9 410.3 129.3 409.6 130.9 408.8 132.3 408 133.8 407.2 135.2 406.4 136.8 405.5 138.2 404.7 139.7 402.9 142.7 402 144.3 401.1 145.8 400.9 147.2 400.8 147.8 400.8 148 400.7 148.2 400.7 148.6 400.6 148.8 400.6 149 400.6 149.2 400.5 149.8 400.2 151 400 152.1 399.8 152.7 399.7 153.2 399.5 153.6 399.4 154.2 399.2 154.6 399.1 155.2 398.6 156 398.5 156.4 398.3 156.9 397.8 157.6 397.7 157.9 397.5 158.3 396.9 158.8 396.5 159.5 396 160 395.7 160.2 395.6 160.3 395.5 160.3 395.5 160.4 395.5 161.7 395.6 162.9 395.7 165.5 395.7 166.1 395.7 166.6 395.6 167.6 395.5 169.6 395.5 169.9 395.9 171.7 396 173.4 396.1 174.2 396.2 174.5 396.2 174.7 396.3 175.1 396.5 176.8 396.7 178.5 396.7 179.4 396.8 180.2 396.8 181.1 396.9 181.9 396.9 183.6 397.5 183 397.9 182.2 398.2 181.9 398.5 181.6 398.9 180.8 399.4 180.1 399.9 179.3 400 179.1 400.1 178.9 400.3 178.5 400.8 177.6 401.1 177.2 401.2 176.7 401.7 175.8 402 174.8 402.3 174.4 402.5 173.9 402.9 172.9 402.9 172.6 403.1 172.3 403.3 171.9 403.6 170.8 404 169.6 403.6 171.3 403.5 171.6 403.4 172 403.2 172.8 402.7 174.2 402.3 175.6 401.9 177 401.4 178.3 401 179.7 400.5 180.9 400.1 182.1 399.6 183.1 399.2 184.3 398.7 185.3 398.3 186.3 398 186.8 397.7 187.3 397.3 188.1 397.1 188.6 396.9 189 396.8 190.4 396.7 191.9 396.5 193.2 396.4 194.8 397.4 193.6 398.4 192.4 398.8 191.9 399.4 191.3 399.8 190.7 400.3 190.1 401.2 189 402.2 187.7 403.1 186.4 403.6 185.7 404 185.1 404.9 183.9 405.8 182.5 406.7 181.2 407.6 179.7 407.9 179 408.2 178.7 408.4 178.4 409.2 177 410.1 175.5 410.4 174.7 410.7 174.4 410.9 174 411.7 172.5 412.5 171 413.2 169.5 414 167.9 414.7 166.2 415.5 164.6 415.7 164.2 415.9 163.7 416.2 162.9 417 161.3 417.3 160.4 417.7 159.6 418 158.7 418.4 157.8 419 156.1 419.7 154.4 420.4 152.6 420.7 151.7 421 150.8 421.3 149.8 421.6 148.9 422.3 147 422.7 145.8 422.9 145.1 423.1 144.3 423.6 142.8 423.9 141.3 424.4 139.8 424.7 138.3 425.2 136.8 426 133.7 426.3 132.2 426.7 130.7 427.4 127.5 427.4 127.1 427.5 126.7 427.7 125.9 428 124.4 428.7 121.3 428.8 120.5 428.9 120 429 119.7 429.3 118.1 429.9 114.9 430.5 111.6 430.5 111.2 430.5 110.7 430.7 109.9 431 108.3 431.2 106.6 431.3 106.3 431.4 105.8 431.4 105 431.9 101.7 432.2 100 432.3 98.4 432.8 95 433 93.2 433 91.4 433.2 89.6 433.3 87.9 433.4 86.1 433.4 84.4 433.4 82.6 433.3 80.9 433.2 79.1 433.1 77.3 433 75.6 432.9 73.8 432.6 72.1 432.3 70.4 432.1 68.6 431.8 66.9 431.4 65.2 431 63.5 430.6 61.9 430.2 60.2 429.7 58.5 429.1 56.8 428.6 55.1 428 53.4 427.3 51.7 426.7 50 426 48.4 425.3 46.7 424.5 45 423.8 43.3 422.9 41.7 422.1 40 421.1 38.5 420 37.1 419 35.7 417.9 34.3 417 32.9 415.9 31.6 414.7 30.3 413.7 29 412.5 27.8 411.3 26.6 410.1 25.5 408.9 24.3 407.7 23.2 406.4 22.2 405.2 21.2 403.9 20.2 402.6 19.2 401.2 18.2 399.9 17.3 398.5 16.5 397.1 15.6 395.7 14.9 394.2 14.1 392.7 13.4 391.3 12.7 389.8 12.1 388.3 11.4 386.7 10.8 385.1 10.3 383.5 9.7 381.9 9.2 380.3 8.8 379.8 8.5 378.1 8 376.4 7.5 374.7 7.1 373 6.6 371.2 6.3 369.4 5.9 367.6 5.6 365.8 5.4 364 5.1 362.1 4.9 360.2 4.7 358.2 4.6 356.3 4.5 354.3 4.5 352.3 4.4 350.3 4.4 348.2 4.4 346.2 4.5 344 4.6 342 4.6 339.7 4.8 337.6 5 335.4 5.3 333.2 5.5 330.9 5.8 328.7 6.2 326.3 6.5 324 6.9 321.7 7.3 319.3 7.8 316.9 8.2 314.5 8.8 310.6 9.7 306.8 10.8 303 12 299.2 13.3 297.3 13.9 295.4 14.7 291.6 16.2 288 17.8 286.1 18.6 284.3 19.5 280.7 21.4 278.8 22.3 277 23.2 275.1 24.2 273.3 25.3 269.8 27.4 266.2 29.7 262.7 32.1 260.9 33.2 259.1 34.5 255.6 37.1 257.1 39 257.9 39.9 258.5 40.8 259.2 41.7 259.3 41.8 259.4 41.9 259.5 42.2 259.8 42.6 261.1 44.5 261.7 45.4 262.2 46.4 263.4 48.2 263.9 49.2 264.4 50.1 265.4 51.9 267.6 50.3 269.9 48.7 272.2 47.2 274.4 45.8 276.6 44.3 279 43 281.2 41.7 283.4 40.3 285.7 39.1 287.9 37.9 290.1 36.7 291.3 36.1 292.4 35.6 294.6 34.5 296.8 33.5 299.1 32.5 301.3 31.6 303.5 30.7 305.8 29.8 308 29 310.2 28.2 312.5 27.4 314.7 26.7 316.9 26.1 319.2 25.5 321.3 24.9 323.6 24.4 325.8 23.9 328 23.5 330.2 23.1 332.4 22.7 334.6 22.4 336.9 22.2 338.2 22.2 339.6 22.2 341 22.2 342.3 22.3 343.6 22.3 344.9 22.4 346.2 22.5 347.4 22.6 348.6 22.7 349.7 22.9 350.9 23.1 352.1 23.2 353.1 23.4 354.2 23.6 355.3 23.9 356.3 24.1 357.3 24.3 358.3 24.6 359.2 24.8 360.2 25.2 361.1 25.5 362 25.8 362.8 26.2 363.6 26.5 364.4 26.9 365.2 27.4 365.9 27.7 366.6 28.2 367.4 28.6 368.1 29 368.7 29.5 369.3 30 369.9 30.6 370.5 31 371 31.6 371.6 32.2 372.1 32.7 372.5 33.2 373 33.9 373.4 34.5 373.8 35.1 374.1 35.8 374.5 36.5 374.8 37.1 375.1 37.8 375.4 38.5 375.6 39.2 375.8 40 376 40.8 376.2 41.6 376.4 42.3 376.5 43.2 376.6 44 376.7 44.8 376.7 45.7 376.7 46.5 376.7 47.4 376.7 48.3 376.6 49.2 376.5 50.1 376.4 51.1 376.2 52 376 53 375.9 54.1 375.7 55.1 375.4 56 375.1 56.9 374.9 57.9 374.5 58.8 374.1 59.8 373.7 60.7 373.4 61.1 373.3 61.6 372.8 62.4 372.5 62.8 372.3 63.3 372 63.7 371.8 64.1 371.5 64.5 371.2 65 370.9 65.3 370.7 65.8 370 66.6 369.3 67.3 368.7 68.1 368.3 68.5 368 68.8 367.2 69.6 366.4 70.3 365.7 71.1 364.8 71.7 363.9 72.4 363.4 72.7 363 73 362.5 73.4 362.1 73.7 361.1 74.3 360.6 74.6 360.1 74.9 359.6 75.3 359 75.5 358.1 76.2 357.4 76.4 356.9 76.7 355.8 77.2 354.7 77.8 353.5 78.3 352.9 78.6 352.2 78.8 351.6 79 351 79.3 349.7 79.8 348.4 80.3 347.1 80.7 345.7 81.2 344.3 81.5 342.9 82 341.3 82.3 339.9 82.7 338.4 83 337.6 83.2 336.8 83.4 336 83.6 335.2 83.7 334.4 83.8 333.6 84 332 84.4 330.3 84.6 328.6 84.9 327.7 85 326.8 85.2 325.9 85.3 325 85.4 323.2 85.6 321.3 85.8 319.4 86 317.6 86.2 315.6 86.3 313.6 86.5 311.7 86.6 309.6 86.7 308.6 86.8 307.6 86.9 305.5 87 304.4 87 303.4 87.1 302.3 87.1 301.2 87.1 299.1 87.1 300.6 87.9 302.2 88.7 303 89 303.8 89.5 305.5 90.5 306.3 91 307.2 91.5 308.9 92.6 310.7 93.8 312.6 95.2 314.7 94.8 316.9 94.6 319.1 94.4 321.4 94.3 321.6 94.3 321.9 94.3 323.1 94.2 324.4 94.2 325.6 94.2 326.8 94.2 327.9 94.3 329.2 94.3 330.3 94.4 331.4 94.5 332.6 94.6 333.7 94.7 334.7 94.8 335.8 95 336.9 95.2 337.9 95.4 338.9 95.5 339.9 95.8 340.9 96.1 341.9 96.4 342.1 96.3 342.3 96.2 342.6 96.1 342.9 96 343.2 95.8 343.6 95.6 343.8 95.5 344.2 95.2 344.7 94.9 345 94.6 345.5 94.2 345.9 93.8 346.4 93.5 346.8 93 347.3 92.6 347.8 92.2 348.2 91.7 348.6 91.4 349 91.1 349.5 90.8 349.9 90.6 350.4 90.4 350.9 90.3 351.4 90.1 351.9 90 352.4 89.9 353 89.9 353.5 89.9 354 90 354.6 90.1 355.2 90.2 355.8 90.4 357.6 89.2 357.7 89.2 359 88.4 359.6 88 360.2 87.5 360.7 87.1 361.4 86.6 362 86.1 362.6 85.6 363.7 84.6 364.9 83.6 366 82.4 366.6 81.9 366.8 81.6 367.1 81.3 367.6 80.7 368.2 80.1 369.2 78.8 370.2 77.6 370.5 77.2 370.8 77 371.2 76.2 371.7 75.6 372.2 74.9 373.2 73.5 373.3 73.1 373.6 72.8 374.1 72 375 70.5 375.4 69.8 375.8 69 376.7 67.4 377.1 66.6 377.5 65.8 378.3 64.1 379.2 62.4 379.5 61.5 379.9 60.6 380.2 59.7 380.6 58.8 381.3 57 382 55.1 382.2 54.6 382.4 54.1 382.6 53.2 383 52.1 383.3 51.1 383.6 50.1 383.8 49.6 383.9 49.2 384.5 47.1 385.1 45 385.6 42.8 385.8 42.2 385.9 41.7 386.1 40.6 386.3 42.5 386.3 43.4 386.3 43.9 386.4 44.4 386.4 45.3 386.4 46.3 386.4 46.7 386.4 47.2 386.4 48.2 386.3 49.1 386.3 50.1 386.1 51.8 385.9 53.7 385.8 55.5 385.4 57.3 385.1 59.2 385 60 384.8 60.4 384.8 60.9 384.5 61.8 384.3 62.7 384.2 63.1 384.1 63.5 383.8 64.4 383.3 66.2 382.7 67.9 382.1 69.6 381.4 71.3 380.7 73 379.9 74.7 379.5 75.5 379.1 76.3 378.6 77.2 378.2 78 377.7 78.8 377.5 79.3 377.3 79.6 376.3 81.2 375.2 82.9 374.7 83.7 374.1 84.5 373 86.1 371.8 87.7 371.2 88.4 370.6 89.2 370.3 89.6 369.9 90 369.3 90.7 369 91.2 368.6 91.5 368 92.3 367.3 93 366.9 93.4 366.6 93.8 365.2 95.4 365.6 95.5 366 95.6 366.4 95.7 366.7 95.9 367.1 96.2 367.4 96.4 367.7 96.6 368 96.9 368.2 97.2 368.4 97.4 368.6 97.7 368.8 98.1 368.9 98.4 369 98.8 369.1 99.1 369.2 99.6 369.2 99.9 369.2 100.4 369.2 100.8 369.2 101.4 369.1 101.8 369.1 102.3 369 102.8 368.9 103.3 368.7 103.9 368.5 104.5 368.3 105.1 368.2 105.7 367.9 106.4 367.6 107 367.3 107.6 367 108.3 367.4 108.7 367.9 109 368.2 108.7 368.2 108.6 368.4 108.5 368.6 108.4 368.9 108.3 369.1 108.3 369.4 108.2 369.9 107.9 370.4 107.6 371.4 107.1 371.8 106.8 372.4 106.6 372.8 106.5 373.3 106.3 373.7 106.1 374.1 106 375 105.8 375.5 105.7 375.9 105.7 376.3 105.7 376.7 105.8 377.5 105.9 377.9 106 378.3 106.1 378.6 106.3 379 106.5 379.3 106.6 379.8 106.9 380.4 107.3 380.8 107.6 381.1 108 381.4 108.2 381.7 108.7 382 109 382.4 109.5 383.3 108.2 384.2 106.8 386 104.2 386.8 102.9 387.7 101.6 388.5 100.4 389.3 99 390.1 97.8 391 96.4 391.7 95.2 392.4 93.9 393.1 92.6 393.7 91.3 394.4 90.1 395.1 88.8 396.2 86.3 397.4 83.7 397.9 82.5 398.4 81.2 398.9 80 399.4 78.7 400.2 76.2 401 73.7 401.3 72.5 401.7 71.2 402 70 402.3 68.8 402.8 66.3 403.3 63.9 403.6 61.4 403.9 59 404 56.6 404.2 54.2 404.2 53 404.2 51.8 404.1 49.4 403.9 47 403.8 45.9 403.6 44.7 403.3 42.4 402.9 40 402.4 37.6 402.1 36.5 401.9 35.3 401.1 33 400.4 30.7 401.1 31.7 401.7 32.7 402.3 33.7 402.9 34.8 403.5 35.8 404 36.8 404.4 37.9 405 39.1 405.3 40.1 405.8 41.2 406.2 42.4 406.5 43.5 406.9 44.7 407.2 45.9 407.5 47 407.7 48.3 407.9 49.4 408.1 50.7 408.2 51.9 408.4 53.2 408.5 54.4 408.6 55.8 408.6 57 408.6 58.4 408.6 59.7 408.6 61 408.5 62.4 408.4 63.8 408.2 65.2 408.1 66.6 407.9 68 407.8 69.4 407.5 70.9 407.2 72.3 406.9 73.7 406.6 75.3 406.2 76.8 405.8 78.3 405.4 79.8 405 81.3 404.4 82.9 404 84.5 403.5 86.1 402.9 87.7 402.3 89.3 401.7 90.9 401.1 92.5 400.4 94.2 399.7 95.8 399 97.5 398.2 99.2 397.5 100.9 396.6 102.6 395.8 104.4 394.9 106.2 394 108 393.1 109.8 392.1 111.5 391.1 113.3 390.1 115.1 389.1 117 388 118.9 386.9 120.8 385.8 122.6 385.9 123 386.1 123.4 386.3 124.3 386.4 124.7 386.4 125.1 386.4 125.5 386.5 125.9 386.4 126.4 386.4 126.7 386.4 127.2 386.3 127.5 386.2 128 386.1 128.4 385.8 129.2 386.9 131 387.9 132.9 388.1 132.6 388.4 132.2 388.7 131.9 389 131.7 389.3 131.4 389.8 131.2 390.2 131 390.7 130.9 391.1 130.9 391.7 130.9 392.2 130.9 392.8 130.9 393.4 131 394.1 131.1 394.7 131.3 395.5 131.6 395.8 131.6 396 131.7 396.4 131.8 396.7 132 396.9 132.2 397.1 132.4 397.4 132.6 397.6 132.8 397.7 133.1 398 133.4 398.1 133.7 398.3 134.1 398.5 134.4 398.5 134.8 398.6 135.2 398.7 135.7 400.3 133.3 401.9 130.9 403.4 128.5 404.8 126.1 406.1 123.8 407.5 121.4 408.7 119.1 409.9 116.7 411.1 114.4 412.1 112.1 413.2 109.8 414.2 107.5 415.1 105.2 416 103 416.8 100.6 417.5 98.4 418.2 96.2 418.8 93.8 419.4 91.6 419.9 89.5 420.4 87.2 420.8 85 421.2 82.9 421.5 80.6 421.8 78.5 422 76.3 422.1 74.1 422.1 72 422.2 69.9 422.1 67.8 422.1 65.6 422 63.5"/>
        <path class="cls-6" d="M239.2,96.6l7.5-6.7h.6l-7.3,9.6c-.8,0-1.3-.4-1.4-1.3,0-.4.2-1,.6-1.6Z"/>
        <polygon class="cls-8" points="273.4 115.5 273.5 115.4 273.7 115.3 273.6 114.6 273.4 113.9 273.1 112.6 272.8 111.4 272.6 110.7 272.4 110.1 272 108.9 271.7 108.3 271.5 107.8 271 106.6 270.5 105.6 269.8 104.5 269.2 103.5 268.9 103 268.6 102.5 267.9 101.5 267.4 101.1 267.1 100.6 266.3 99.7 265.4 98.9 264.6 98.1 263.9 99.4 263.2 100.6 262.9 101.1 262.6 101.6 262.3 102.1 262.1 102.6 261.8 103.1 261.5 103.5 261.3 103.9 261 104.3 260.8 104.7 260.5 105 260.2 105.7 260 106 259.8 106.3 259.5 106.8 259.4 107 259.2 107.2 259 107.5 258.8 107.6 258.8 107.8 258.7 108 258.6 108 258.6 108 258.5 108.1 258.5 108.1 257.9 108.6 257.2 109.1 256.6 109.7 256 110.2 255.4 110.7 254.7 111.2 254.2 111.6 253.6 112 253 112.4 252.4 112.8 251.9 113.1 251.3 113.4 250.8 113.7 250.3 114 249.7 114.2 249.2 114.4 248.7 114.6 248.2 114.8 247.8 114.9 247.2 115 246.8 115.1 246.3 115.2 245.9 115.2 245.4 115.2 245 115.2 244.5 115.2 244.1 115.1 243.7 115 243.3 114.9 242.9 114.8 242.6 114.7 242.1 114.5 241.8 114.2 241.4 114 241.1 113.7 240.7 113.4 240.3 113.2 240.1 112.8 239.7 112.4 239.5 112.1 239.1 111.6 238.8 111.2 238.6 110.7 238.3 110.3 237.8 109.2 237.5 108.7 237.3 108.1 237 107.4 236.8 106.8 236.6 106.2 236.4 105.5 236 104 235.8 103.2 235.6 102.4 235.5 101.6 235.3 100.8 235.2 99.9 235.1 99 234.9 98.1 234.8 97.2 234.6 96.3 234.5 95.3 244.8 84.6 242.4 84.2 241.2 84 240.1 83.8 238.8 83.7 237.8 83.6 236.6 83.5 235.4 83.5 235.3 83.4 235.1 83.5 233.6 83.3 232.1 83.2 230.6 83.2 229.3 83.2 227.8 83.2 226.4 83.2 225.1 83.3 223.7 83.4 222.4 83.6 221.1 83.7 219.8 83.8 218.5 84.1 217.3 84.3 216.1 84.6 214.9 84.9 213.7 85.2 212.5 85.5 211.5 85.9 210.3 86.3 209.2 86.7 208.2 87.1 207.2 87.7 206.1 88.1 205.1 88.7 204.1 89.2 203.2 89.8 202.2 90.5 201.3 91.1 200.4 91.7 199.5 92.4 198.6 93.2 197.8 93.9 196.9 94.7 196 95.6 195.2 96.4 194.4 97.3 192.9 99.1 191.5 100.9 190.2 102.7 189.1 104.6 188.6 105.6 188.1 106.5 187.6 107.5 187.2 108.5 186.5 110 186 111.5 185.6 113.2 185.2 114.8 184.8 116.4 184.6 118 184.5 119.7 184.4 121.4 184.3 123.1 184.4 124.8 184.5 126.6 184.8 128.3 185 130 185.4 131.9 185.8 133.7 186.4 135.6 186.6 136.8 187.1 137.8 187.9 140.1 188.3 141.3 188.9 142.5 189.3 143.6 189.9 144.8 191 143.5 191.5 142.9 192.2 142.3 192.8 141.7 193.5 141 194.1 140.4 194.9 139.9 196.3 138.7 197.8 137.7 199.3 136.7 200.1 136.1 201 135.7 202.7 134.7 204.6 133.8 206.5 132.9 207.4 132.6 208.4 132.1 209.4 131.7 210.5 131.4 212.5 130.6 214.8 130 217.1 129.3 218.3 129 219.4 128.7 221.8 128.2 224.3 127.6 226.9 127.2 228.3 126.9 229.6 126.7 231 126.5 232.4 126.3 233.7 126.1 235.2 126 238.1 125.7 241.1 125.5 242.6 125.3 244.1 125.2 245.6 125.1 247.2 125 250.4 125 253.7 124.9 255.4 124.9 257.1 124.9 258.8 124.9 260.5 124.9 262.2 124.9 264 125 265.6 125 267.3 122.5 269.2 120.1 270.2 119 271.3 117.8 272.3 116.6 273.4 115.5"/>
        <polygon class="cls-8" points="241.6 132.2 243.8 132 246.2 131.9 248.6 131.9 251 131.8 253.5 131.9 256 131.9 258.5 132 261.1 132.2 262 130.5 263 128.7 264 127 265.2 125.4 265.4 125.1 265.6 125 264 125 262.2 124.9 260.5 124.9 258.8 124.9 257.1 124.9 255.4 124.9 253.7 124.9 250.4 125 247.2 125 245.6 125.1 244.1 125.2 242.6 125.3 241.1 125.5 238.1 125.7 235.2 126 233.7 126.1 232.4 126.3 231 126.5 229.6 126.7 228.3 126.9 226.9 127.2 224.3 127.6 221.8 128.2 219.4 128.7 218.3 129 217.1 129.3 214.8 130 212.5 130.6 210.5 131.4 209.4 131.7 208.4 132.1 207.4 132.6 206.5 132.9 204.6 133.8 202.7 134.7 201 135.7 200.1 136.1 199.3 136.7 197.8 137.7 196.3 138.7 194.9 139.9 194.1 140.4 193.5 141 192.8 141.7 192.2 142.3 191.5 142.9 191 143.5 189.9 144.8 189.8 145.2 189.7 145.7 189.5 146 189.5 146.5 189.3 147.2 189.3 147.5 189.3 147.8 189.3 148.1 189.3 148.5 189.4 149 189.4 149.3 189.5 149.4 189.7 149.7 189.8 149.9 189.8 150.1 190 150.2 190.2 150.3 190.4 150.4 190.6 150.6 190.7 150.7 191.3 150.8 191.8 150.9 192.1 150.9 192.4 150.9 192.7 150.9 193.1 150.9 193.4 150.8 193.9 150.7 194.2 150.3 194.6 150.1 195.7 149.1 196.8 148.1 198 147.2 199.1 146.3 200.3 145.4 201.6 144.6 202.8 143.8 204.1 143 205.3 142.2 206.6 141.5 208 140.8 209.3 140.1 210.8 139.5 212.1 138.9 213.5 138.3 215.1 137.7 216.5 137.2 218 136.7 219.5 136.1 221 135.7 222.6 135.2 224.3 134.8 225.9 134.4 227.5 134.1 229.2 133.7 230.9 133.4 232.6 133.2 234.4 132.9 236.1 132.7 237.8 132.5 239.7 132.3 241.6 132.2"/>
        <path class="cls-6" d="M187.2,108.5l-1.8-.3-1.8-.4-1.8-.4-1.8-.4-1.8-.4-1.8-.5-1.7-.5-1.7-.6-1.7-.7-1.7-.7-1.7-.8-1.7-.8-1.7-.9-1.6-1-1.6-1-1.6-1.1-1.6-1.2-1.6-1.2-1.6-1.3-1.6-1.3-1.6-1.3-1.5-1.3-1.5-1.4-1.5-1.4-1.5-1.5-1.5-1.6-1.5-1.6-1.4-1.7-1.5-1.8-1.4-1.8-1.4-1.9-1.4-1.9.4,1.8.4,1.8.4,1.8.5,1.7.5,1.7.5,1.7.5,1.6.5,1.6.5,1.6.5,1.5.5,1.5.6,1.5.6,1.4.6,1.4.6,1.4.6,1.4.6,1.3.6,1.3.6,1.3.7,1.3.7,1.3.7,1.3.7,1.3.7,1.2.7,1.2.7,1.2.7,1.2.8,1.1.8,1.1.8,1.1.8,1,.8,1,.8.9.8.9.8.9.8.9.8.8.9.8.9.8.9.8.9.7.9.7.9.7.9.7.9.6,1,.6,1,.6,1,.5,1,.5,1,.4,1,.4,1,.4,1,.4,1.1.4,1.1.4,1.1.4,1.1.3,1.1.3,1.1.3,1.1.3,1.1.2,1.2.2,1.2.2,1.2.2-.5-1.9-.4-1.8-.4-1.8-.3-1.8-.2-1.8-.2-1.8v-1.7c0,0,0-1.7,0-1.7v-1.7c0,0,.3-1.7.3-1.7l.3-1.6.4-1.6.4-1.6.4-1.6.5-1.5.2-1.5h0ZM185.3,109.5c-3.6,10.1-2.9,17.8-.4,24.5-28.9-5.5-40.7-32-47.7-56.6,12.8,16.8,26.6,28.9,48.1,32.1Z"/>
        <path class="cls-6" d="M143.7,92.1c-.5-1.2.5-1.6,1.3-.9,6.6,14.1,14.6,25.9,22,30,.5.6.6,1.4-.9,1.4-9.7-6.9-16.1-16.3-22.4-30.6Z"/>
        <path class="cls-6" d="M168.9,125c-1-.8-.2-1.7.9-1.3,3.8,2.9,7.2,4.3,9.9,4,.8.4,1.2,1-.3,1.6-4.5,0-7.9-2.1-10.5-4.3Z"/>
        <path class="cls-6" d="M324.2,93.1c6.7,0,13.1.9,19.3,2.6l-2.2,1.2c-5.2-1.3-10.5-2-16.1-2.1-22.3,32.4-30.8,56.3-23.6,78.6,12.5-5.6-2.1-32.2,28.2-51.4l4.6,3.7c-31.7,21.1-13.1,43.6-31.4,51.4,1.5,3.7,3.5,7.3,5.8,10.9,16.3-6.7,31.7-20.3,50.1-37.3l3.1,3.4c-11.4,11.2-28.2,29.7-49.8,38.8.9,1.2,1.9,2.3,2.9,3.5,30.5-21.7,34.2,34.1,79.9-28.8v-1.9c0-1.5,0-2.9-.2-4.5l1.5-1.8c.2,2.1.3,4.1.3,6.3,0,40.1-32.4,72.7-72.5,72.7s-12.2-.8-17.8-2.2v.2c0,0-1.1-.4-1.1-.4-30.9-8.3-53.6-36.6-53.6-70.2.2-40.1,32.6-72.6,72.7-72.6h0ZM388.6,136.3l1.6-.5c-1.2-2.7-2.5-5.2-4-7.7l-.8,1.9c1.2,2.1,2.2,4.2,3.2,6.3h0ZM367.7,109.8l1-1.3c-1.3-1-2.6-2-3.9-2.9l-1.1,1.3c1.4.9,2.7,1.8,4,2.9h0ZM317.7,199.3c8.9,9.8,21.2,19.8,36.9,30.6,21.1-10.1,36.5-30.3,39.8-54.3-39.3,53.5-55.4,9-76.7,23.8h0ZM349.3,232.1c-14.7-10.4-26.5-20-35.4-29.7-12.2,11.4-1.3,15.2-7,32.1,5.5,1.4,11.3,2.1,17.3,2.1,8.8,0,17.3-1.6,25.1-4.6h0ZM311.2,199.5c-1.3-1.6-2.7-3.1-3.8-4.7-14.5,5-30.9,5.5-49.2-3.3,7.7,19.9,24.1,35.4,44.6,41.9,5.4-7.2-5.7-20.6,8.5-33.9h0ZM303.9,189.8c-2.4-3.8-4.5-7.4-6-11.3-20.6,3.5-20.3-33.5-43.1-27-.9,4.6-1.4,9.3-1.4,14.2s.9,13.1,2.7,19.3c18.3,8.6,33.5,9.4,47.8,4.7h0ZM296.3,174.4c-7.2-22.3.3-46.7,22.5-79.4-30,2.2-54.9,23.3-62.8,51.4,21.5-5.4,24,27.6,40.3,28Z"/>
        <polygon class="cls-6" points="280.4 85.8 280 86.2 279.7 86.5 279.4 87 279.1 87.4 279 87.9 278.7 88.3 278.5 88.8 278.4 89.3 278.2 89.8 278.2 90.4 278.1 90.9 278 91.4 278 92.1 278 92.7 278 93.3 278.1 93.9 278.2 94.6 278.2 95.3 278.3 96 278.4 96.7 278.6 97.4 278.8 98.1 279 98.9 279.2 99.7 279.6 100.6 279.9 101.4 280.1 102.2 280.5 103.1 280.8 103.9 281.2 104.8 281.6 105.7 282.1 106.6 282.5 107.6 284.1 106.5 285.7 105.5 287.2 104.5 288.8 103.5 288 102.9 287.3 102.3 286.6 101.6 285.8 101.1 285.2 100.5 284.7 99.8 284.1 99.3 283.5 98.7 283.1 98.1 282.6 97.5 282.2 97 281.8 96.4 281.5 95.8 281.1 95.2 280.8 94.7 280.7 94.1 280.4 93.5 280.2 93 280 92.4 279.9 91.9 279.9 91.3 279.9 90.7 279.9 90.2 279.9 89.6 279.9 89 280.1 88.5 280.3 88 280.5 87.4 280.7 86.9 280.9 86.3 281.2 85.8 281.5 85.3 281.1 85.4 280.9 85.5 280.6 85.7 280.5 85.8 280.4 85.8"/>
        <path class="cls-6" d="M329.9,109.6c1.8-5,8.9-7.2,16.3-3.4,3.8,3.1,6.3,8.8,1.3,14.7-8.4-.3-15.6-4.1-17.6-11.3h0ZM332,110.2c2.3,5.3,8.1,8.3,14.2,9.1,3.9-4.7,2.1-9.3-1.1-11.8-5.9-3-11.6-1.3-13.1,2.7Z"/>
        <path class="cls-9" d="M377.1,134.4c4,6.2,2,12.2-4.5,18.3-.6-6.4-4.6-7.5-10.5-6.5,4.5-9.2,9.2-15.1,15-11.8h0ZM376,135.9c-4-2.1-7.3,1.6-11,8.2,3.7-.4,6.7,1,8.5,5.3,4.4-5.5,4.9-8.8,2.5-13.5Z"/>
        <path class="cls-6" d="M387,158.2c4.7.3,6.1,5,6.4,5.7.2.7-.3,1.9-.5,2.2-.2,4.2-2.5,7.2-5.6,8.9-.3,0-.9-.4-1.1-.4-1.7-2.8-2.9-4.6-5.4-5.5-.8-2-.4-4.2,1.3-6.9,2.3-2.9,3.8-4.2,4.8-4.1h0ZM386.8,160c-.7,0-1.3,1.1-3,3.3-1.3,2.1-1.9,3.3-1.3,4.7,3.2,1.5,4.8,5.1,4.8,5.1,2.1-2.1,3.8-4,4-7.2.2-.3.7-1.8.5-2.3-.3-.4-1.4-3.4-5-3.7Z"/>
        <path class="cls-6" d="M384,204.3v.7c0,0,.2.3.2.3v.3c0,0,.2.3.2.3l.2.3.2.2.2.2.2.2.3.2.3.2.3.2h.3c0,0,.4.2.4.2h.4c0,0,.4.2.4.2h.4c0,0,.3,0,.3,0h2.9c0,0,.4-.2.4-.2h.4c0,0,.4-.3.4-.3l.4-.2.4-.2.4-.3.4-.3.4-.3.4-.4.4-.4.4-.4.4-.4.3-.4.4-.4.3-.5v-.2c0,0,.2,0,.2,0l.2-.3.3-.5.3-.5.3-.6.3-.6v-.4c0,0,.2-.4.2-.4l.3-.7.2-.7.3-.7-.8-3.7.2-1.7.2-1.7v-1.7c.3-2.9-1.3.2-1.7.9l.4,2.1-.2,1.4-.2,1.4.6,3.1-.2.6-.2.6-.2.5v.3c0,0-.2.2-.2.2v.2l-.3.5-.2.5-.3.4-.2.4-.2.2h0c0,0,0,.2,0,.2l-.3.4-.3.4-.3.4-.3.4-.3.4-.3.3-.3.3-.4.3-.3.2-.4.2-.3.2-.4.2-.4.2h-.4c0,0-.4.2-.4.2h-.7c0,0-.2,0-.2,0h-2.1c0,0-.4-.2-.4-.2h-.3c0,0-.3-.2-.3-.2h-.3c0,0-.3-.3-.3-.3h-.2c0,0-.2-.3-.2-.3l-.2-.2-.2-.2-.2-.2v-.2c0,0-.2-.2-.2-.2v-.3c0,0-.2-.3-.2-.3v-.3c0,0-.7.7-.7.7Z"/>
        <path class="cls-6" d="M403.4,169.5l1.3.3c-3.4,13.2-6.5,19.4-9.4,22.8-.8.5-1.2-.2-1.2-.8,2.3-3,4.1-6.9,5.7-11-1.6,2.2-2.4,3.6-4.2,5.7-.8.5-1.2-.2-1.2-.8,3.1-2.9,5.2-4.9,8.9-16.2Z"/>
        <polygon class="cls-6" points="281.7 83.2 281.7 83.2 281.4 83.8 281 84.5 280.7 85 280.5 85.6 280.3 86.3 280.1 86.9 280 87.4 279.9 88 279.9 88.7 279.9 89.3 279.9 89.9 279.9 89.9 279.9 89.6 279.9 89 280.1 88.5 280.3 88 280.5 87.4 280.7 86.9 280.9 86.3 281.2 85.8 281.5 85.3 281.5 85.3 282.4 84.9 283.3 84.6 284.2 84.5 285.2 84.3 286.2 84.2 287.3 84.2 288.3 84.2 289.4 84.3 290.5 84.5 291.6 84.6 292.8 84.9 294 85.2 295.2 85.6 296.5 86.1 297.7 86.5 299.1 87.1 300.6 87.9 302.2 88.7 303 89 303.8 89.5 305.5 90.5 306.3 91 307.2 91.5 308.9 92.6 310.7 93.8 312.2 94.9 312.7 94.8 314.4 94.5 316.2 94.2 314.2 92.8 312.2 91.4 310.2 90.2 309.3 89.6 308.4 89 306.5 88 305.6 87.4 304.7 87 302.9 86.1 301.2 85.3 299.7 84.6 298.4 84.1 296.9 83.6 295.6 83.1 294.2 82.8 293 82.5 291.7 82.3 290.5 82.1 289.2 82.1 288.1 82.1 286.9 82.1 285.8 82.1 284.8 82.3 283.7 82.6 282.7 82.9 281.7 83.2"/>
        <path class="cls-6" d="M398.8,131.4v4.3l-3.6,5.5c-1,1.1-2.7-.3-1.5-1.6l5.1-8.1Z"/>
        <path class="cls-6" d="M402.3,143.8v4.3l-3.6,5.5c-1,1.1-2.7-.3-1.5-1.6l5.1-8.1Z"/>
        <path class="cls-6" d="M382.8,104.5v4.3l-5.7,8.5c-1,1.1-2.7-.3-1.5-1.6l7.2-11.2Z"/>
        <path class="cls-6" d="M388.7,117.8v4.3l-3.6,5.5c-1,1.1-2.7-.3-1.5-1.6l5.1-8.1Z"/>
        <path class="cls-6" d="M358.8,85.5l-.4,3.2-7.2,4.9c-1.3.6-2.4-1.3-.8-2.1l8.4-6.1Z"/>
        <path class="cls-6" d="M368.6,91.5l-1.1,4.6-6.8,7.7c-1.2.9-2.7-.9-1.3-2.1l9.1-10.2Z"/>
        <path class="cls-6" d="M274.6,114v-.2c0,0,.3,0,.3,0l-.2-.7-.2-.7-.3-1.3-.4-1.3-.2-.6-.2-.6-.4-1.3-.3-.6-.3-.5-.5-1.2-.5-1.1-.6-1.1-.6-1-.4-.5-.4-.4-.7-1-.4-.4-.4-.4-.8-.9-.9-.9-.9-.8-.7,1.3-.2.6.9.8.8.8.8.9.4.4.4.4.7.9.4.4.4.5.6,1,.6,1.1.5,1.1.5,1.2.2.5.3.6.4,1.2.2.6.2.6.4,1.3.3,1.3.2.6v.4c0,0,1.2-.9,1.2-.9h0ZM265.5,125.4v-.2c0,0,0-.2,0-.2h-1.5c0,0-1.8-.2-1.8-.2h-12c0,0-3.2.2-3.2.2h-1.6c0,0-1.5.2-1.5.2h-1.5c0,0-1.5.2-1.5.2l-2.9.3-2.9.3-1.4.2-1.4.2-1.4.2-1.3.2-1.3.2-1.3.3-2.6.4-2.5.5-2.4.5-1.2.3-1.2.4-2.3.6-2.2.7-2.1.7-1.1.4-1,.4-1,.4-1,.4-1.9.9-1.8.9-1.7,1-.9.4-.8.5-1.6,1.1-1.5,1.1-1.2,1.1-.7.5-.6.6-.6.6-.6.6-.6.6-1.7,2-1-1.5-.6.7-.5-1.3-.5-1.2-.5-1.2-.4-1.2-.9-2.3-.4-1.2-.4-1.2-.5-2-.4-1.9-.4-1.9-.3-1.8-.3-1.8-.2-1.8v-1.8c0,0,0-1.7,0-1.7v-1.7c0,0,.3-1.7.3-1.7l.3-1.7.4-1.6.4-1.6.4-1.6.5-1.6.6-1.5.4-1,.4-1,.5-1,.5-1,1.2-2,1.3-1.9,1.4-1.9,1.5-1.8.8-.9.9-.9.9-.9.9-.9.9-.8.9-.7.9-.7,1-.7,1-.7,1-.6,1-.6,1.1-.5,1.1-.5,1.1-.5,1.1-.5,1.2-.4,1.2-.4,1.2-.4,1.2-.4,1.3-.4,1.2-.4,1.3-.3,1.3-.3,1.3-.3,1.3-.3,1.3-.2,1.3-.2h1.3c0,0,1.3-.2,1.3-.2h1.4c0,0,1.4-.2,1.4-.2h4.4c0,0,1.5.2,1.5.2h1.5c0,0,.2,0,.2,0h1.4c0,0,1.2.2,1.2.2h1.2c0,0,1.3.3,1.3.3l1.3.2,1.3.2,4.5,1.3-3.7,2.9,1.4-1.5-2.4-.4-1.2-.2-1.2-.2-1.2-.2h-1.3s-1.2,0-1.2,0h-1.2c0,0-.2,0-.2,0h-1.7c0,0-1.4-.2-1.4-.2h-1.4c0,0-1.4,0-1.4,0h-2.8c0,0-1.3.2-1.3.2h-1.3c0,0-1.3.2-1.3.2l-1.3.2-1.3.2-1.3.2-1.3.2-1.2.3-1.2.3-1.2.4-1.2.4-1.2.4-1.2.4-1.1.4-1.1.4-1.1.5-1.1.4-1,.5-1,.5-1,.6-1,.6-.9.6-.9.6-.9.7-.9.7-.8.8-.9.8-.9.8-.8.9-.8.9-1.5,1.8-1.3,1.8-1.3,1.8-1.2,1.9-.5,1-.4,1-.4,1-.4,1-.6,1.5-.5,1.5-.4,1.6-.4,1.6-.4,1.6-.3,1.6-.2,1.7v1.7c0,0,0,1.7,0,1.7v1.7c0,0,.3,1.8.3,1.8l.2,1.8.3,1.8.4,1.8.4,1.8.5,1.9.4,1.1.4,1.2.8,2.3.4,1.2.4,1.2v.3c0,0,.4-.4.4-.4l.6-.6.6-.7.7-.6.7-.6.7-.6,1.5-1.3,1.6-1.2,1.7-1.1.9-.5.9-.5,1.8-1.1,1.9-1,2-.9,1-.4,1.1-.4,1.1-.4,1.1-.4,2.2-.8,2.3-.7,2.4-.6,1.3-.4,1.3-.3,2.6-.6,2.6-.5,2.7-.4,1.3-.3,1.4-.2,1.4-.2,1.4-.2,1.4-.2,1.5-.2,3-.3,3.1-.3h1.6c0,0,1.6-.2,1.6-.2h1.6c0,0,1.7-.2,1.7-.2h3.4c0,0,3.4-.2,3.4-.2h11c0,0,1.4.2,1.4.2l.4-.6.2-.3-.7,1h.2l-.2.2-.2.2-1.3,1.5Z"/>
      </g>
    </g>
  </g>
</svg>